<svg xmlns="http://www.w3.org/2000/svg" xmlns:xlink="http://www.w3.org/1999/xlink" width="48" height="48" version="1.1" viewBox="0 0 48 48"><title>application-pgp-encrypted</title><desc>Created with Sketch.</desc><defs><linearGradient id="linearGradient-1" x1="90.7%" x2="35.327%" y1="6.565%" y2="64.144%"><stop offset="0%" stop-color="#93DEF2"/><stop offset="100%" stop-color="#5ABADF"/></linearGradient></defs><g id="Page-1" fill="none" fill-rule="evenodd" stroke="none" stroke-width="1"><g id="application-pgp-encrypted"><path id="Rectangle-219" fill="#5ABADF" d="M5,7.99765987 C5,6.34209804 6.34419539,5 7.99761025,5 L31.020752,5 L43,17.0198975 L43,39.9943718 C43,41.6543344 41.6475599,43 40.0023401,43 L7.99765987,43 C6.34209804,43 5,41.6475599 5,40.0023401 L5,7.99765987 Z"/><path id="Path-406" fill="url(#linearGradient-1)" d="M31,5 L43,17 L43,7.99715203 C43,6.34187067 41.6583772,5 40.002848,5 L31,5 Z" transform="translate(37.000000, 11.000000) rotate(180.000000) translate(-37.000000, -11.000000)"/><ellipse id="Oval-104" cx="24" cy="23.875" fill="#FFF" rx="8.092" ry="7.875"/><path id="Combined-Shape" fill="#5ABADF" d="M25.3018501,23.5960502 L25.3018501,26.9908819 C25.3018501,27.2721561 25.0776707,27.500174 24.7948794,27.500174 L23.1794421,27.500174 C22.89945,27.500174 22.6724715,27.2706394 22.6724715,26.9908819 L22.6724715,23.5971256 C21.8859821,23.1858347 21.3567551,22.4165673 21.3567551,21.5354402 C21.3567551,20.2212896 22.533968,19.1559601 23.9861337,19.1559601 C25.4382994,19.1559601 26.6155122,20.2212896 26.6155122,21.5354402 C26.6155122,22.4158 26.0872067,23.1844948 25.3018501,23.5960502 Z"/></g></g></svg>