<svg xmlns="http://www.w3.org/2000/svg" xmlns:xlink="http://www.w3.org/1999/xlink" width="48" height="48" version="1.1" viewBox="0 0 48 48"><title>application-mbox</title><desc>Created with Sketch.</desc><defs><linearGradient id="linearGradient-1" x1="90.7%" x2="35.327%" y1="6.565%" y2="64.144%"><stop offset="0%" stop-color="#93DEF2"/><stop offset="100%" stop-color="#5ABADF"/></linearGradient></defs><g id="Page-1" fill="none" fill-rule="evenodd" stroke="none" stroke-width="1"><g id="application-mbox"><path id="Rectangle-219" fill="#5ABADF" d="M5,7.99765987 C5,6.34209804 6.34312337,5 8.00793008,5 L31,5 L43,17 L43,39.9920699 C43,41.6533038 41.6475599,43 40.0023401,43 L7.99765987,43 C6.34209804,43 5,41.6475599 5,40.0023401 L5,7.99765987 Z"/><path id="Combined-Shape" fill="#FFF" d="M24,25 L15.8305664,19.5537109 C15.3718572,19.2479048 15.4449463,19 15.9933977,19 L32.0066023,19 C32.5552407,19 32.6247395,19.2501737 32.1694336,19.5537109 L24,25 Z M15,20 L24,26 L33,20 L33,30.0044225 C33,30.5542648 32.5550537,31 32.0066023,31 L15.9933977,31 C15.4447593,31 15,30.555163 15,30.0044225 L15,20 Z"/><path id="Path-406" fill="url(#linearGradient-1)" d="M31,5 L43,17 L43,7.99715203 C43,6.34187067 41.6583772,5 40.002848,5 L31,5 Z" transform="translate(37.000000, 11.000000) rotate(180.000000) translate(-37.000000, -11.000000)"/></g></g></svg>