<svg xmlns="http://www.w3.org/2000/svg" xmlns:xlink="http://www.w3.org/1999/xlink" width="48" height="48" version="1.1" viewBox="0 0 48 48"><title>application-ram</title><desc>Created with Sketch.</desc><defs><linearGradient id="linearGradient-1" x1="90.7%" x2="35.327%" y1="6.565%" y2="64.144%"><stop offset="0%" stop-color="#93DEF2"/><stop offset="100%" stop-color="#5ABADF"/></linearGradient></defs><g id="Page-1" fill="none" fill-rule="evenodd" stroke="none" stroke-width="1"><g id="application-ram"><path id="Rectangle-219" fill="#5ABADF" d="M5,7.99765987 C5,6.34209804 6.34419539,5 7.99761025,5 L31.020752,5 L43,17.0198975 L43,39.9943718 C43,41.6543344 41.6475599,43 40.0023401,43 L7.99765987,43 C6.34209804,43 5,41.6475599 5,40.0023401 L5,7.99765987 Z"/><path id="Path-406" fill="url(#linearGradient-1)" d="M31,5 L43,17 L43,7.99715203 C43,6.34187067 41.6583772,5 40.002848,5 L31,5 Z" transform="translate(37.000000, 11.000000) rotate(180.000000) translate(-37.000000, -11.000000)"/><path id="Rectangle-233" fill="#FFF" d="M32.0066023,29 C32.0037099,29 32.0020594,29.000206 32.0011319,29 L32.0066023,29 Z M15.9933977,19 C15.9962901,19 15.9979406,18.999794 15.9988681,19 L15.9933977,19 Z M32,19.0024733 C32,19.0025699 15.9988681,19 15.9988681,19 C15.9997957,19.0002061 16,28.9975267 16,28.9975267 C16,28.9974301 32.0011319,29 32.0011319,29 C32.0002043,28.9997939 32,19.0024733 32,19.0024733 Z M15,19.0024733 C15,18.4488226 15.4449463,18 15.9933977,18 L32.0066023,18 C32.5552407,18 33,18.455761 33,19.0024733 L33,28.9975267 C33,29.5511774 32.5550537,30 32.0066023,30 L15.9933977,30 C15.4447593,30 15,29.544239 15,28.9975267 L15,19.0024733 Z"/><rect id="Rectangle-291" width="3" height="12" x="16" y="18" fill="#FFF"/><rect id="Rectangle-291" width="3" height="12" x="29" y="18" fill="#FFF"/><polygon id="Triangle-55" fill="#FFF" points="24 22 26 26 22 26" transform="translate(24.000000, 24.000000) rotate(90.000000) translate(-24.000000, -24.000000)"/><rect id="Rectangle-304" width="2" height="1" x="16" y="19" fill="#5ABADF"/><rect id="Rectangle-304" width="2" height="1" x="16" y="22" fill="#5ABADF"/><rect id="Rectangle-304" width="2" height="1" x="16" y="25" fill="#5ABADF"/><rect id="Rectangle-304" width="2" height="1" x="16" y="28" fill="#5ABADF"/><rect id="Rectangle-304" width="2" height="1" x="30" y="19" fill="#5ABADF"/><rect id="Rectangle-304" width="2" height="1" x="30" y="22" fill="#5ABADF"/><rect id="Rectangle-304" width="2" height="1" x="30" y="25" fill="#5ABADF"/><rect id="Rectangle-304" width="2" height="1" x="30" y="28" fill="#5ABADF"/></g></g></svg>