<svg xmlns="http://www.w3.org/2000/svg" xmlns:xlink="http://www.w3.org/1999/xlink" width="48" height="48" version="1.1" viewBox="0 0 48 48"><title>application-ogg</title><desc>Created with Sketch.</desc><defs><linearGradient id="linearGradient-1" x1="90.7%" x2="35.327%" y1="6.565%" y2="64.144%"><stop offset="0%" stop-color="#93DEF2"/><stop offset="100%" stop-color="#5ABADF"/></linearGradient></defs><g id="Page-1" fill="none" fill-rule="evenodd" stroke="none" stroke-width="1"><g id="application-ogg"><path id="Rectangle-219" fill="#5ABADF" d="M5,7.99765987 C5,6.34209804 6.34419539,5 7.99761025,5 L31.020752,5 L43,17.0198975 L43,39.9943718 C43,41.6543344 41.6475599,43 40.0023401,43 L7.99765987,43 C6.34209804,43 5,41.6475599 5,40.0023401 L5,7.99765987 Z"/><path id="Path-406" fill="url(#linearGradient-1)" d="M31,5 L43,17 L43,7.99715203 C43,6.34187067 41.6583772,5 40.002848,5 L31,5 Z" transform="translate(37.000000, 11.000000) rotate(180.000000) translate(-37.000000, -11.000000)"/><path id="Combined-Shape" fill="#FFF" d="M29.6036414,18.9878624 L30.1352282,28.5693794 C29.2571001,28.3503553 28.1745347,28.5360594 27.2577324,28.6933283 C25.5328103,28.9892226 24.328304,30.2981047 24.5673921,31.6167982 C24.8064803,32.9354916 26.3986251,33.7646342 28.1235471,33.4687398 C29.8240076,33.1770416 32.0947236,32.7875214 31.744035,30.4889748 L31.0488362,17.9584536 C31.037456,17.7533336 30.9446742,17.5720512 30.8035792,17.444216 C30.6496868,17.233042 30.4137172,17.082056 30.1345235,17.0428179 L19.3391853,15.525632 C19.1820469,15.5035477 19.0283131,15.5192653 18.8871766,15.5658577 C18.8576864,15.5646782 18.8278114,15.565224 18.7976596,15.5675873 C18.3847124,15.5999532 18.0761905,15.9609508 18.1085564,16.3738979 L18.8919082,26.3684365 C18.0216727,26.1659252 16.9595074,26.3481298 16.0577201,26.502823 C14.3327981,26.7987173 13.1282918,28.1075994 13.3673799,29.4262929 C13.6064681,30.7449863 15.1986129,31.5741289 16.9235349,31.2782345 C18.6097915,30.9889729 20.8568167,30.6035166 20.5522639,28.3556701 L19.7090419,17.5972671 L29.6036414,18.9878624 L29.6036414,18.9878624 Z"/></g></g></svg>