<svg xmlns="http://www.w3.org/2000/svg" xmlns:xlink="http://www.w3.org/1999/xlink" width="48" height="48" version="1.1" viewBox="0 0 48 48"><title>application-epub+zip</title><desc>Created with Sketch.</desc><defs><linearGradient id="linearGradient-1" x1="90.7%" x2="35.327%" y1="6.565%" y2="64.144%"><stop offset="0%" stop-color="#93DEF2"/><stop offset="100%" stop-color="#5ABADF"/></linearGradient></defs><g id="Page-1" fill="none" fill-rule="evenodd" stroke="none" stroke-width="1"><g id="application-epub+zip"><path id="Rectangle-219" fill="#5ABADF" d="M5,7.99765987 C5,6.34209804 6.34419539,5 7.99761025,5 L31.020752,5 L43,17.0198975 L43,39.9943718 C43,41.6543344 41.6475599,43 40.0023401,43 L7.99765987,43 C6.34209804,43 5,41.6475599 5,40.0023401 L5,7.99765987 Z"/><path id="Path-406" fill="url(#linearGradient-1)" d="M31,5 L43,17 L43,7.99715203 C43,6.34187067 41.6583772,5 40.002848,5 L31,5 Z" transform="translate(37.000000, 11.000000) rotate(180.000000) translate(-37.000000, -11.000000)"/><path id="Combined-Shape" fill="#FFF" d="M23.8578998,20.2670001 L23.8578998,19.0068422 C23.8578998,18.448124 23.4104184,18 22.8584221,18 L15.9948931,18 C14.8922094,18 14,18.8980535 14,20.0058587 L14,29.9941413 C14,31.1029399 14.8940169,32 15.9968427,32 L22.8670793,32 C23.4179053,32 23.8675337,31.5558138 23.8675337,31.0078824 L23.8675337,29.9213421 C23.6136041,29.969103 23.3571957,29.9958838 23.1007873,29.999425 C20.2009329,30.0479882 19.1962589,27.0127834 20.6804363,23.880452 C21.5800485,21.9818359 22.7900544,20.7701421 23.8578998,20.2670001 Z M24.8516378,20.0011768 L24.8516378,19.0068422 C24.8516378,18.4507786 25.2928823,18 25.8480879,18 L31.9923531,18 C33.1011459,18 34,18.8970601 34,20.0058587 L34,29.9941413 C34,31.1019465 33.0998988,32 31.9931473,32 L25.9596396,32 C25.4061014,32 24.9573699,31.5462116 24.9573699,31.0078824 L24.9573699,29.5845032 C26.0183413,29.1262279 26.9614296,28.3264444 27.5761532,27.377008 C27.9871562,26.7456854 28.0556567,26.0657995 27.9643227,25.8715464 C27.8729887,25.6530116 27.6903207,25.6530116 27.5761532,25.8472647 C26.5943127,27.4498529 24.9274672,29.392384 23.0322868,29.2952574 C21.8221113,29.2224125 21.2741073,27.6926693 22.0047793,25.4587585 C23.6031243,26.8428119 25.1329687,26.2114893 26.2518102,24.754591 C27.2108172,23.5162274 27.3934852,22.0350475 26.9824822,21.4522881 C26.6171462,20.9180921 26.2061432,20.5538675 25.6353057,20.1896429 C25.4138232,20.0530359 25.1476548,19.9904502 24.8516378,20.0011768 L24.8516378,20.0011768 Z"/><path id="e-" fill="#FFF" d="M22,24.7477752 C22.0489902,24.6290802 22.1224755,24.4866462 22.1959608,24.3442122 C23.3472302,22.0890067 25.380323,20.6646664 25.89472,21.0682295 C26.2376513,21.3293585 25.6987592,22.5637868 24.9149162,23.560825 C24.2045585,24.4629072 23.2002596,25.4836844 22,24.7477752 L22,24.7477752 L22,24.7477752 Z"/></g></g></svg>