<svg xmlns="http://www.w3.org/2000/svg" xmlns:xlink="http://www.w3.org/1999/xlink" width="48" height="48" version="1.1" viewBox="0 0 48 48"><title>gnome-mime-text-x-install</title><desc>Created with Sketch.</desc><defs><linearGradient id="linearGradient-1" x1="90.7%" x2="35.327%" y1="6.565%" y2="64.144%"><stop offset="0%" stop-color="#93DEF2"/><stop offset="100%" stop-color="#5ABADF"/></linearGradient></defs><g id="Page-1" fill="none" fill-rule="evenodd" stroke="none" stroke-width="1"><g id="gnome-mime-text-x-install"><path id="Rectangle-219" fill="#5ABADF" d="M5,7.99765987 C5,6.34209804 6.34312337,5 8.00793008,5 L31,5 L43,17 L43,39.9920699 C43,41.6533038 41.6475599,43 40.0023401,43 L7.99765987,43 C6.34209804,43 5,41.6475599 5,40.0023401 L5,7.99765987 Z"/><path id="Path-406" fill="url(#linearGradient-1)" d="M31,5 L43,17 L43,7.99715203 C43,6.34187067 41.6583772,5 40.002848,5 L31,5 Z" transform="translate(37.000000, 11.000000) rotate(180.000000) translate(-37.000000, -11.000000)"/><path id="Path-672" fill="#FFF" d="M13.4700011,26.1520017 C13.0016645,26.444712 12.8592914,27.0616624 13.1520017,27.5299989 C13.444712,27.9983355 14.0616624,28.1407086 14.5299989,27.8479983 L22.5299989,22.8479983 C23.156667,22.4563308 23.156667,21.5436692 22.5299989,21.1520017 L14.5299989,16.1520017 C14.0616624,15.8592914 13.444712,16.0016645 13.1520017,16.4700011 C12.8592914,16.9383376 13.0016645,17.555288 13.4700011,17.8479983 L20.1132038,22 L13.4700011,26.1520017 Z"/><path id="Path-673" fill="#FFF" d="M21,30 L31,30 C31.5522847,30 32,29.5522847 32,29 C32,28.4477153 31.5522847,28 31,28 L21,28 C20.4477153,28 20,28.4477153 20,29 C20,29.5522847 20.4477153,30 21,30 Z"/></g></g></svg>