<svg xmlns="http://www.w3.org/2000/svg" xmlns:xlink="http://www.w3.org/1999/xlink" width="48" height="48" version="1.1" viewBox="0 0 48 48"><title>gnome-mime-application-x-shockwave-flash</title><desc>Created with Sketch.</desc><defs><linearGradient id="linearGradient-1" x1="90.7%" x2="35.327%" y1="6.565%" y2="64.144%"><stop offset="0%" stop-color="#93DEF2"/><stop offset="100%" stop-color="#5ABADF"/></linearGradient></defs><g id="Page-1" fill="none" fill-rule="evenodd" stroke="none" stroke-width="1"><g id="gnome-mime-application-x-shockwave-flash"><path id="Rectangle-219" fill="#5ABADF" d="M5,7.99765987 C5,6.34209804 6.34419539,5 7.99761025,5 L31.020752,5 L43,17.0198975 L43,39.9943718 C43,41.6543344 41.6475599,43 40.0023401,43 L7.99765987,43 C6.34209804,43 5,41.6475599 5,40.0023401 L5,7.99765987 Z"/><path id="Path-406" fill="url(#linearGradient-1)" d="M31,5 L43,17 L43,7.99715203 C43,6.34187067 41.6583772,5 40.002848,5 L31,5 Z" transform="translate(37.000000, 11.000000) rotate(180.000000) translate(-37.000000, -11.000000)"/><path id="path3727" fill="#FFF" d="M31,17.0055964 L31,20.4254584 C27.485106,20.4854559 26.6212766,23.8153216 26.6212766,23.8153216 L29.2723405,23.8153216 L29.2723405,27.2351839 L25.1617022,27.2351839 C22.6893623,34.6448847 17,33.9849115 17,33.9849115 L17,30.5650493 C17,30.5650493 20.6102526,31.2156421 22.4510645,24.6852867 C24.7537515,16.5164072 31,17.0055964 31,17.0055964 L31,17.0055964 Z"/></g></g></svg>