<svg xmlns="http://www.w3.org/2000/svg" xmlns:xlink="http://www.w3.org/1999/xlink" width="48" height="48" version="1.1" viewBox="0 0 48 48"><title>gnome-mime-application-x-glade</title><desc>Created with Sketch.</desc><defs><linearGradient id="linearGradient-1" x1="90.7%" x2="35.327%" y1="6.565%" y2="64.144%"><stop offset="0%" stop-color="#93DEF2"/><stop offset="100%" stop-color="#5ABADF"/></linearGradient></defs><g id="Page-1" fill="none" fill-rule="evenodd" stroke="none" stroke-width="1"><g id="gnome-mime-application-x-glade"><path id="Rectangle-219" fill="#5ABADF" d="M5,7.99765987 C5,6.34209804 6.34419539,5 7.99761025,5 L31.020752,5 L43,17.0198975 L43,39.9943718 C43,41.6543344 41.6475599,43 40.0023401,43 L7.99765987,43 C6.34209804,43 5,41.6475599 5,40.0023401 L5,7.99765987 Z"/><path id="Path-406" fill="url(#linearGradient-1)" d="M31,5 L43,17 L43,7.99715203 C43,6.34187067 41.6583772,5 40.002848,5 L31,5 Z" transform="translate(37.000000, 11.000000) rotate(180.000000) translate(-37.000000, -11.000000)"/><path id="Rectangle-227" fill="#FFF" d="M20,31.5 C20,30.9477153 20.4530363,30.5 20.9970302,30.5 L27.00297,30.5 C27.5536145,30.5 28,30.9438648 28,31.5 L28,31.5 C27.9999999,32.0522848 27.5469635,32.5 27.0029697,32.5 L20.9970301,32.5 C20.4463856,32.5 20,32.0561352 20,31.5 L20,31.5 Z" transform="translate(24.000000, 31.500000) scale(1, -1) translate(-24.000000, -31.500000)"/><path id="Rectangle-228" fill="#FFF" d="M20.8625319,14.9885116 C20.9384534,14.7187141 21.2278805,14.5 21.4910052,14.5 L26.5089948,14.5 C26.7801695,14.5 27.0620492,14.7205001 27.1374681,14.9885116 L28.8625319,21.11876 C28.9384534,21.3885574 28.8764038,21.8023738 28.7311783,22.0316189 L24.2688217,29.0756526 C24.1203556,29.3100132 23.8764038,29.3048978 23.7311783,29.0756526 L19.2688217,22.0316189 C19.1203556,21.7972583 19.0620492,21.3867714 19.1374681,21.11876 L20.8625319,14.9885116 Z" transform="translate(24.000000, 22.000000) scale(1, -1) translate(-24.000000, -22.000000)"/><ellipse id="Oval-285" cx="23.988" cy="22.033" fill="#5ABADF" rx="1.542" ry="1.542" transform="translate(23.988159, 22.032940) scale(1, -1) translate(-23.988159, -22.032940)"/><polygon id="Path-380" fill="#5ABADF" points="24.5 22.5 24.5 14 23.5 14 23.5 22.5"/></g></g></svg>