<svg xmlns="http://www.w3.org/2000/svg" xmlns:xlink="http://www.w3.org/1999/xlink" width="48" height="48" version="1.1" viewBox="0 0 48 48"><title>gnome-mime-application-vnd.rn-realmedia-secure</title><desc>Created with Sketch.</desc><defs><linearGradient id="linearGradient-1" x1="90.7%" x2="35.327%" y1="6.565%" y2="64.144%"><stop offset="0%" stop-color="#93DEF2"/><stop offset="100%" stop-color="#5ABADF"/></linearGradient></defs><g id="Page-1" fill="none" fill-rule="evenodd" stroke="none" stroke-width="1"><g id="gnome-mime-application-vnd.rn-realmedia-secure"><path id="Rectangle-219" fill="#5ABADF" d="M5,7.99765987 C5,6.34209804 6.34419539,5 7.99761025,5 L31.020752,5 L43,17.0198975 L43,39.9943718 C43,41.6543344 41.6475599,43 40.0023401,43 L7.99765987,43 C6.34209804,43 5,41.6475599 5,40.0023401 L5,7.99765987 Z"/><path id="Path-406" fill="url(#linearGradient-1)" d="M31,5 L43,17 L43,7.99715203 C43,6.34187067 41.6583772,5 40.002848,5 L31,5 Z" transform="translate(37.000000, 11.000000) rotate(180.000000) translate(-37.000000, -11.000000)"/><path id="Rectangle-233" fill="#FFF" d="M32,20.0024733 C32,20.0025699 15.9988681,20 15.9988681,20 C15.9997957,20.0002061 16,29.9975267 16,29.9975267 C16,29.9974301 32.0011319,30 32.0011319,30 C32.0002043,29.9997939 32,20.0024733 32,20.0024733 Z M15,20.0024733 C15,19.4488226 15.4449463,19 15.9933977,19 L32.0066023,19 C32.5552407,19 33,19.455761 33,20.0024733 L33,29.9975267 C33,30.5511774 32.5550537,31 32.0066023,31 L15.9933977,31 C15.4447593,31 15,30.544239 15,29.9975267 L15,20.0024733 Z"/><rect id="Rectangle-291" width="3" height="12" x="16" y="19" fill="#FFF"/><rect id="Rectangle-291" width="3" height="12" x="29" y="19" fill="#FFF"/><polygon id="Triangle-55" fill="#FFF" points="24 23 26 27 22 27" transform="translate(24.000000, 25.000000) rotate(90.000000) translate(-24.000000, -25.000000)"/><rect id="Rectangle-304" width="2" height="1" x="16" y="20" fill="#5ABADF"/><rect id="Rectangle-304" width="2" height="1" x="16" y="23" fill="#5ABADF"/><rect id="Rectangle-304" width="2" height="1" x="16" y="26" fill="#5ABADF"/><rect id="Rectangle-304" width="2" height="1" x="16" y="29" fill="#5ABADF"/><rect id="Rectangle-304" width="2" height="1" x="30" y="20" fill="#5ABADF"/><rect id="Rectangle-304" width="2" height="1" x="30" y="23" fill="#5ABADF"/><rect id="Rectangle-304" width="2" height="1" x="30" y="26" fill="#5ABADF"/><rect id="Rectangle-304" width="2" height="1" x="30" y="29" fill="#5ABADF"/></g></g></svg>