<svg xmlns="http://www.w3.org/2000/svg" xmlns:xlink="http://www.w3.org/1999/xlink" width="48" height="48" version="1.1" viewBox="0 0 48 48"><title>gnome-mime-application-x-ms-dos-executable</title><desc>Created with Sketch.</desc><defs><linearGradient id="linearGradient-1" x1="90.7%" x2="35.327%" y1="6.565%" y2="64.144%"><stop offset="0%" stop-color="#93DEF2"/><stop offset="100%" stop-color="#5ABADF"/></linearGradient></defs><g id="Page-1" fill="none" fill-rule="evenodd" stroke="none" stroke-width="1"><g id="gnome-mime-application-x-ms-dos-executable"><path id="Rectangle-219" fill="#5ABADF" d="M5,7.99765987 C5,6.34209804 6.34419539,5 7.99761025,5 L31.020752,5 L43,17.0198975 L43,39.9943718 C43,41.6543344 41.6475599,43 40.0023401,43 L7.99765987,43 C6.34209804,43 5,41.6475599 5,40.0023401 L5,7.99765987 Z"/><path id="Path-406" fill="url(#linearGradient-1)" d="M31,5 L43,17 L43,7.99715203 C43,6.34187067 41.6583772,5 40.002848,5 L31,5 Z" transform="translate(37.000000, 11.000000) rotate(180.000000) translate(-37.000000, -11.000000)"/><path id="path6294" fill="#FFF" d="M21.9854305,17.0006691 C21.0988444,17.0143482 20.0411215,17.2456724 18.7311258,17.7874241 L17.0145695,23.747689 C18.4033971,23.1742653 19.4934408,22.9060271 20.4119205,22.9132519 C21.8046389,22.9235322 22.7790898,23.5035176 23.6900662,24.1172254 L25.418543,18.1808016 C24.4727358,17.5411177 23.4630726,16.9778683 21.9854305,17.0006691 L21.9854305,17.0006691 Z M26.3245033,18.8125896 L24.607947,24.7728545 C26.1170708,25.7960709 27.938749,26.6387371 31.2834437,25.142391 L33,19.1940466 C29.5113931,20.6356621 27.834741,19.8299716 26.3245033,18.8125896 L26.3245033,18.8125896 Z M19.9708609,24.0576228 C19.0850301,24.0791713 18.034101,24.3065848 16.7284768,24.8443777 L16.7046358,24.8443777 L15,30.7808016 C18.4955495,29.3355745 20.1488945,30.1676061 21.6635762,31.1860996 L23.4039735,25.2019936 C22.4607678,24.5616155 21.4472443,24.0217067 19.9708609,24.0576228 L19.9708609,24.0576228 Z M24.3218543,25.774179 L22.5933775,31.6986824 C24.1052783,32.7238433 25.7891323,33.5480963 29.2807947,32.1039804 L30.9377483,26.3225234 C27.3802426,27.5388256 25.8354259,26.7923948 24.3218543,25.774179 L24.3218543,25.774179 Z"/></g></g></svg>