<svg xmlns="http://www.w3.org/2000/svg" xmlns:xlink="http://www.w3.org/1999/xlink" width="48" height="48" version="1.1" viewBox="0 0 48 48"><title>gnome-mime-x-install</title><desc>Created with Sketch.</desc><defs><linearGradient id="linearGradient-1" x1="90.7%" x2="35.327%" y1="6.565%" y2="64.144%"><stop offset="0%" stop-color="#93DEF2"/><stop offset="100%" stop-color="#5ABADF"/></linearGradient></defs><g id="Page-1" fill="none" fill-rule="evenodd" stroke="none" stroke-width="1"><g id="gnome-mime-x-install"><path id="Rectangle-219" fill="#5ABADF" d="M5,7.99765987 C5,6.34209804 6.34324319,5 8.0081984,5 L31.0023193,5 L43,17.0091553 L43,39.9931291 C43,41.653778 41.6475599,43 40.0023401,43 L7.99765987,43 C6.34209804,43 5,41.6475599 5,40.0023401 L5,7.99765987 Z"/><path id="Path-406" fill="url(#linearGradient-1)" d="M31,5 L43,17 L43,7.99715203 C43,6.34187067 41.6583772,5 40.002848,5 L31,5 Z" transform="translate(37.000000, 11.000000) rotate(180.000000) translate(-37.000000, -11.000000)"/><path id="Combined-Shape" fill="#FFF" d="M24,34 C28.9705627,34 33,29.9705627 33,25 C33,20.0294373 28.9705627,16 24,16 C19.0294373,16 15,20.0294373 15,25 C15,29.9705627 19.0294373,34 24,34 Z M24,33 L19,26 L29,26 L24,33 Z M26,26 L22,26 L22,18 L26,18 L26,26 Z"/></g></g></svg>