<svg xmlns="http://www.w3.org/2000/svg" xmlns:xlink="http://www.w3.org/1999/xlink" width="48" height="48" version="1.1" viewBox="0 0 48 48"><title>gnome-mime-text-x-changelog</title><desc>Created with Sketch.</desc><defs><linearGradient id="linearGradient-1" x1="90.7%" x2="35.327%" y1="6.565%" y2="64.144%"><stop offset="0%" stop-color="#93DEF2"/><stop offset="100%" stop-color="#5ABADF"/></linearGradient></defs><g id="Page-1" fill="none" fill-rule="evenodd" stroke="none" stroke-width="1"><g id="gnome-mime-text-x-changelog"><path id="Rectangle-219" fill="#5ABADF" d="M5,7.99765987 C5,6.34209804 6.34324319,5 8.0081984,5 L31.0023193,5 L43,17.0091553 L43,39.9931291 C43,41.653778 41.6475599,43 40.0023401,43 L7.99765987,43 C6.34209804,43 5,41.6475599 5,40.0023401 L5,7.99765987 Z"/><path id="Path-406" fill="url(#linearGradient-1)" d="M31,5 L43,17 L43,7.99715203 C43,6.34187067 41.6583772,5 40.002848,5 L31,5 Z" transform="translate(37.000000, 11.000000) rotate(180.000000) translate(-37.000000, -11.000000)"/><path id="Combined-Shape" fill="#FFF" d="M22.7781746,27.9497475 L17.5372828,22.7088557 C17.1506988,22.3222717 16.5088786,22.3195485 16.1146955,22.7137316 L14.7137316,24.1146955 C14.313498,24.5149291 14.3173655,25.1457926 14.7088557,25.5372828 L21.7764257,32.6048528 C21.8677337,32.6961609 21.9732805,32.7660546 22.08644,32.8143621 L22.1146955,32.8426176 C22.5149291,33.2428511 23.1429194,33.2418569 23.5308654,32.8539109 L34.8539109,21.5308654 C35.2417246,21.1430517 35.2368007,20.5088786 34.8426176,20.1146955 L33.4416537,18.7137316 C33.0414201,18.313498 32.4134297,18.3144923 32.0254838,18.7024382 L22.7781746,27.9497475 L22.7781746,27.9497475 Z"/></g></g></svg>