<svg xmlns="http://www.w3.org/2000/svg" xmlns:xlink="http://www.w3.org/1999/xlink" width="48" height="48" version="1.1" viewBox="0 0 48 48"><title>text-x-bak</title><desc>Created with Sketch.</desc><defs><linearGradient id="linearGradient-1" x1="90.7%" x2="35.327%" y1="6.565%" y2="64.144%"><stop offset="0%" stop-color="#93DEF2"/><stop offset="100%" stop-color="#5ABADF"/></linearGradient></defs><g id="Page-1" fill="none" fill-rule="evenodd" stroke="none" stroke-width="1"><g id="text-x-bak"><path id="Rectangle-219" fill="#5ABADF" d="M5,7.99765987 C5,6.34209804 6.34312337,5 8.00793008,5 L31,5 L43,17 L43,39.9920699 C43,41.6533038 41.6475599,43 40.0023401,43 L7.99765987,43 C6.34209804,43 5,41.6475599 5,40.0023401 L5,7.99765987 Z"/><path id="Path-406" fill="url(#linearGradient-1)" d="M31,5 L43,17 L43,7.99715203 C43,6.34187067 41.6583772,5 40.002848,5 L31,5 Z" transform="translate(37.000000, 11.000000) rotate(180.000000) translate(-37.000000, -11.000000)"/><path id="Fill-1" fill="#FFF" d="M26.7342288,15.4668676 L21.7007102,15.4768535 C22.2486441,15.8253923 22.9747129,16.6065444 23.5732203,17.500118 L23.5732203,17.500118 C24.2416288,18.4987042 24.7737786,19.6474004 25.1738574,20.6508185 L25.1738574,20.6508185 L23.7542544,21.4767459 L28.2842923,21.4664379 L30.3980738,17.4801463 L29.2709599,18.2352063 L28.5558433,16.8761627 C28.0768441,16.1091841 27.6374661,15.553197 26.7342288,15.4668676 L26.7342288,15.4668676 Z M19.5063975,15.8192719 L17.3120849,19.0704753 L21.1772577,21.6577799 L23.2510958,17.7420335 C22.6780361,16.8961344 21.834714,15.6559548 20.503051,15.6279299 L20.503051,15.6279299 C20.4869448,15.6276078 20.4708385,15.6272857 20.4550544,15.6272857 L20.4550544,15.6272857 C20.1615989,15.6272857 19.8494602,15.6833354 19.5063975,15.8192719 L19.5063975,15.8192719 Z M27.2274016,23.6607505 L29.0290443,27.5668332 L30.5791078,27.576819 C31.4617291,27.5868049 32.8687693,26.3195668 32.886164,25.3647896 L32.886164,25.3647896 L32.886164,25.3293559 C32.8858419,25.316793 32.8851977,25.3042301 32.8845534,25.2916673 L32.8845534,25.2916673 L31.1228541,21.1546213 L27.2274016,23.6607505 Z M14,22.3622664 L15.3490577,23.0973547 L14.8958285,24.0537425 C13.4340271,27.1789952 15.2830222,28.7029666 17.4728251,31.7441447 L17.4728251,31.7441447 C17.1600421,30.9890847 17.1787253,30.1811963 17.4528534,29.3987557 L17.4528534,29.3987557 L19.3955867,25.2414159 L20.6135397,25.875357 L18.2079134,22.1309809 L14,22.3622664 Z M24.3985035,30.5664573 L26.4723415,34.4722178 L26.4823274,32.8615949 L27.4989526,32.8615949 C30.7794693,32.8599843 31.2330207,30.4247224 32.8140081,26.9828213 L32.8140081,26.9828213 C32.3185805,27.6174067 31.6314888,27.9517721 30.8513031,28.0400342 L30.8513031,28.0400342 L26.4823274,28.0496979 L26.4723415,26.6104453 L24.3985035,30.5664573 Z M18.6807922,28.0496979 L17.9763058,29.5095665 C17.5636642,30.3670621 18.0381537,32.3561814 18.8721342,32.7308123 L18.8721342,32.7308123 L23.1705646,32.7308123 L23.2005222,27.8986215 L18.6807922,28.0496979 Z"/></g></g></svg>