<svg xmlns="http://www.w3.org/2000/svg" xmlns:xlink="http://www.w3.org/1999/xlink" width="48" height="48" version="1.1" viewBox="0 0 48 48"><title>text-css</title><desc>Created with Sketch.</desc><defs><linearGradient id="linearGradient-1" x1="90.7%" x2="35.327%" y1="6.565%" y2="64.144%"><stop offset="0%" stop-color="#93DEF2"/><stop offset="100%" stop-color="#5ABADF"/></linearGradient></defs><g id="Page-1" fill="none" fill-rule="evenodd" stroke="none" stroke-width="1"><g id="text-css"><path id="Rectangle-219" fill="#5ABADF" d="M5,7.99765987 C5,6.34209804 6.34419539,5 7.99761025,5 L31.020752,5 L43,17.0198975 L43,39.9943718 C43,41.6543344 41.6475599,43 40.0023401,43 L7.99765987,43 C6.34209804,43 5,41.6475599 5,40.0023401 L5,7.99765987 Z"/><path id="Path-406" fill="url(#linearGradient-1)" d="M31,5 L43,17 L43,7.99715203 C43,6.34187067 41.6583772,5 40.002848,5 L31,5 Z" transform="translate(37.000000, 11.000000) rotate(180.000000) translate(-37.000000, -11.000000)"/><path id="Combined-Shape" fill="#FFF" d="M13,29.990778 C13,29.4435864 13.4509752,29 13.990778,29 L18.009222,29 C18.5564136,29 19,29.4509752 19,29.990778 L19,34.009222 C19,34.5564136 18.5490248,35 18.009222,35 L13.990778,35 C13.4435864,35 13,34.5490248 13,34.009222 L13,29.990778 Z M21,29.990778 C21,29.4435864 21.4509752,29 21.990778,29 L26.009222,29 C26.5564136,29 27,29.4509752 27,29.990778 L27,34.009222 C27,34.5564136 26.5490248,35 26.009222,35 L21.990778,35 C21.4435864,35 21,34.5490248 21,34.009222 L21,29.990778 Z M29,29.990778 C29,29.4435864 29.4509752,29 29.990778,29 L34.009222,29 C34.5564136,29 35,29.4509752 35,29.990778 L35,34.009222 C35,34.5564136 34.5490248,35 34.009222,35 L29.990778,35 C29.4435864,35 29,34.5490248 29,34.009222 L29,29.990778 Z M13,21.990778 C13,21.4435864 13.4509752,21 13.990778,21 L18.009222,21 C18.5564136,21 19,21.4509752 19,21.990778 L19,26.009222 C19,26.5564136 18.5490248,27 18.009222,27 L13.990778,27 C13.4435864,27 13,26.5490248 13,26.009222 L13,21.990778 Z M21,21.990778 C21,21.4435864 21.4509752,21 21.990778,21 L26.009222,21 C26.5564136,21 27,21.4509752 27,21.990778 L27,26.009222 C27,26.5564136 26.5490248,27 26.009222,27 L21.990778,27 C21.4435864,27 21,26.5490248 21,26.009222 L21,21.990778 Z M13,13.990778 C13,13.4435864 13.4509752,13 13.990778,13 L18.009222,13 C18.5564136,13 19,13.4509752 19,13.990778 L19,18.009222 C19,18.5564136 18.5490248,19 18.009222,19 L13.990778,19 C13.4435864,19 13,18.5490248 13,18.009222 L13,13.990778 Z"/></g></g></svg>