<svg xmlns="http://www.w3.org/2000/svg" xmlns:xlink="http://www.w3.org/1999/xlink" width="48" height="48" version="1.1" viewBox="0 0 48 48"><title>text-x-vcard</title><desc>Created with Sketch.</desc><defs><linearGradient id="linearGradient-1" x1="90.7%" x2="35.327%" y1="6.565%" y2="64.144%"><stop offset="0%" stop-color="#93DEF2"/><stop offset="100%" stop-color="#5ABADF"/></linearGradient></defs><g id="Page-1" fill="none" fill-rule="evenodd" stroke="none" stroke-width="1"><g id="text-x-vcard"><path id="Rectangle-219" fill="#5ABADF" d="M5,7.99765987 C5,6.34209804 6.34312337,5 8.00793008,5 L31,5 L43,17 L43,39.9920699 C43,41.6533038 41.6475599,43 40.0023401,43 L7.99765987,43 C6.34209804,43 5,41.6475599 5,40.0023401 L5,7.99765987 Z"/><path id="Path-406" fill="url(#linearGradient-1)" d="M31,5 L43,17 L43,7.99715203 C43,6.34187067 41.6583772,5 40.002848,5 L31,5 Z" transform="translate(37.000000, 11.000000) rotate(180.000000) translate(-37.000000, -11.000000)"/><path id="Combined-Shape" fill="#FFF" d="M13.0452887,19.0024733 C13.0452887,18.4488226 13.5021402,18 14.0412154,18 L32.9900793,18 C33.5401144,18 33.9860059,18.455761 33.9860059,19.0024733 L33.9860059,28.9975267 C33.9860059,29.5511774 33.5291545,30 32.9900793,30 L14.0412154,30 C13.4911803,30 13.0452887,29.544239 13.0452887,28.9975267 L13.0452887,19.0024733 Z M15,20 L20,20 L20,27 L15,27 L15,20 Z M22,20 L32,20 L32,21 L22,21 L22,20 Z M22,23 L32,23 L32,24 L22,24 L22,23 Z M22,26 L32,26 L32,27 L22,27 L22,26 Z"/></g></g></svg>