<svg xmlns="http://www.w3.org/2000/svg" xmlns:xlink="http://www.w3.org/1999/xlink" id="图层_1" x="0" y="0" enable-background="new 0 0 48 48" version="1.1" viewBox="0 0 48 48" xml:space="preserve"><metadata><sfw xmlns="http://ns.adobe.com/SaveForWeb/1.0/"><slices/><sliceSourceBounds width="199.311" height="48.727" x="2.006" y="-49.033" bottomLeftOrigin="true"/></sfw></metadata><path fill="#558ECF" d="M44.8,5.859c0,0-9.851,0.82-9.409,18.789c0,0-1.424,11.963,9.925,11.568c0,0-8.817-5.725-2.713-16.405	c0,0,1.421-2.005,0.247-7.199C42.852,12.611,42.77,8.557,44.8,5.859z"/><linearGradient id="SVGID_1_" x1="40.573" x2="40.573" y1="5.859" y2="28.317" gradientUnits="userSpaceOnUse"><stop offset="0" style="stop-color:#fff"/><stop offset="1" style="stop-color:#fff;stop-opacity:.1765"/></linearGradient><path fill="url(#SVGID_1_)" fill-opacity=".472" d="M44.8,5.859c0,0-7.837,7.276-6.118,22.458l-2.336-3.332	C36.346,24.985,36.151,9.612,44.8,5.859z"/><g><ellipse cx="11.049" cy="20.373" fill="#E9FAFA" rx="7.732" ry="10.223"/><path fill="#5892D2" d="M12.049,17.15c2.391,0,4.636,0.466,6.589,1.279c-0.687-4.715-3.822-8.279-7.589-8.279 c-4.05,0-7.367,4.119-7.699,9.36C5.709,18.037,8.741,17.15,12.049,17.15z"/><circle cx="6.005" cy="20.888" r="1.747" fill="#231815"/></g><path fill="#2562B2" d="M40.021,26.785c0,6.2-10.453,18.209-19.342,18.209S4.371,36.903,4.371,26.914S11.464,8.829,20.354,8.829	S40.021,22.219,40.021,26.785z"/><g><ellipse cx="23.719" cy="23.893" fill="#5090D8" rx="7.395" ry="7.127"/><linearGradient id="SVGID_2_" x1="23.719" x2="23.719" y1="15.422" y2="29.788" gradientUnits="userSpaceOnUse"><stop offset="0" style="stop-color:#fff"/><stop offset="1" style="stop-color:#fff;stop-opacity:.1765"/></linearGradient><ellipse cx="23.719" cy="22.605" fill="url(#SVGID_2_)" rx="6.693" ry="7.183"/><ellipse cx="23.719" cy="18.669" fill="#E9FAFA" rx="6.405" ry="9.648"/><g><path fill="#5892D2" d="M23.714,17.713c2.731,0,5.11,1.018,6.392,2.529c0.542-6.816-2.971-11.221-6.387-11.221 c-3.413,0-6.95,4.363-6.387,11.209C18.617,18.726,20.99,17.713,23.714,17.713z"/></g><circle cx="27.177" cy="21.145" r="1.877" fill="#231815"/><circle cx="27.973" cy="20.737" r=".644" fill="#FFF"/></g><path fill="#5090D8" d="M5.402,32.986c0,0,5.327,5.769,16.735,1.037c0,0,1.882-0.92,2.478-0.77c0,0-1.082,8.103-13.093,8.586	c0,0-6.224,0.002-6.805-5.26C4.718,36.579,3.007,34.383,5.402,32.986z"/><path fill="#60A0E6" d="M5.402,32.986c0,0,5.327,5.769,16.735,1.037c0,0,1.882-0.92,2.478-0.77c0,0-2.991,4.689-9.716,5.653	c-3.001,0.43-7.885-0.182-10.182-2.327C4.718,36.579,3.007,34.383,5.402,32.986z"/></svg>