<svg xmlns="http://www.w3.org/2000/svg" xmlns:xlink="http://www.w3.org/1999/xlink" width="48" height="48" version="1.1" viewBox="0 0 48 48"><title>显示桌面</title><desc>Created with Sketch.</desc><defs><linearGradient id="linearGradient-1" x1="50%" x2="50%" y1="0%" y2="100%"><stop offset="0%" stop-color="#3D7CE0" stop-opacity=".5"/><stop offset="100%" stop-color="#06194B"/></linearGradient><linearGradient id="linearGradient-2" x1="50%" x2="50%" y1="0%" y2="100%"><stop offset="0%" stop-color="#266EB1" stop-opacity=".5"/><stop offset="100%" stop-color="#0E3496"/></linearGradient></defs><g id="Page-1" fill="none" fill-rule="evenodd" stroke="none" stroke-width="1"><g id="显示桌面"><g id="Group" transform="translate(3.000000, 3.000000)"><path id="Oval" fill="#FFCB52" d="M21,42 C32.5979797,42 42,32.5979797 42,21 C42,9.40202025 32.5979797,0 21,0 C9.40202025,0 0,9.40202025 0,21 C0,32.5979797 9.40202025,42 21,42 Z"/><path id="Oval" fill="url(#linearGradient-1)" fill-opacity=".7" d="M21,42 C32.5979797,42 42,32.6548592 42,21.1270438 C42,19.2755908 33.9198384,27.7219088 23.2380371,26.7873534 C12.9263661,25.8851809 -9.71445147e-17,15.4647579 -9.71445147e-17,21.1270438 C-9.71445147e-17,32.6548592 9.40202025,42 21,42 Z" transform="translate(21.000000, 30.725181) scale(-1, 1) translate(-21.000000, -30.725181)"/><polygon id="Path-93" fill="#C1BDB4" points="24.912 27.717 27.532 31.149 33.643 29.649 34.534 25.591" transform="translate(29.722823, 28.369777) scale(1, -1) rotate(24.000000) translate(-29.722823, -28.369777)"/><polygon id="Path-94" fill="#FF6A5F" stroke="#FF6A5F" stroke-linecap="round" stroke-linejoin="round" points="29.614 31.426 33.022 32 30.17 33.725" transform="translate(31.318085, 32.575505) scale(1, -1) rotate(20.000000) translate(-31.318085, -32.575505)"/><path id="Oval" fill="url(#linearGradient-2)" fill-opacity=".7" d="M21,42 C32.5979797,42 42,32.6548592 42,21.1270438 C42,17.4882918 33.8186035,29.0754391 23.2543945,29.5895018 C8.45092619,30.3098503 -9.71445147e-17,9.59922835 -9.71445147e-17,21.1270438 C-9.71445147e-17,32.6548592 9.40202025,42 21,42 Z"/><polygon id="Path-93" fill="#F5F0E9" points="24.182 23.455 26.802 26.887 32.913 25.387 33.804 21.329" transform="translate(28.992854, 24.108055) rotate(4.000000) translate(-28.992854, -24.108055)"/><polygon id="Path-94" fill="#FF6A4A" stroke="#FF6140" stroke-linecap="round" stroke-linejoin="round" points="27.349 18.461 30.758 19.034 27.906 20.76"/><path id="Path-42" fill="#F6F6F6" d="M6.29250208,5.85883168 C6.29250186,5.85883168 3.29250181,2.85883168 7.29250208,1.35883168 C11.2925023,-0.141168319 15.7925018,3.35883196 13.7925021,6.35883168 C13.7925023,6.35883188 16.2925018,2.85883148 19.2925021,5.35883168 C22.2925023,7.85883188 17.7925018,11.358831 15.7925021,11.3588317 C15.7925023,11.3588314 20.7925023,12.3588314 20.7925021,12.3588317 C20.7925023,12.3588314 6.7925021,13.8588309 3.2925021,10.8588314 C-0.207498002,7.35883188 4.29250215,4.85883168 6.29250208,5.85883168 Z"/><path id="Path-42" fill="#F6F6F6" d="M27.6274145,11.9602199 C27.6274144,11.9602199 25.7911325,10.7499167 28.2395085,10.144765 C30.6878844,9.53961344 33.4423068,10.951634 32.2181191,12.1619371 C32.2181192,12.1619372 33.7483538,10.7499166 35.5846358,11.7585027 C37.4209177,12.7670888 34.6664947,14.1791088 33.442307,14.1791091 C33.4423071,14.179109 36.5027768,14.5825434 36.5027767,14.5825435 C36.5027768,14.5825434 27.9334615,15.1876948 25.7911327,13.9773918 C23.6488038,12.5653716 26.4032267,11.5567855 27.6274145,11.9602199 Z" transform="translate(30.751388, 12.366916) scale(-1, 1) translate(-30.751388, -12.366916)"/></g></g></g></svg>