<svg xmlns="http://www.w3.org/2000/svg" xmlns:xlink="http://www.w3.org/1999/xlink" width="48" height="48" version="1.1" viewBox="0 0 48 48"><title>深度看图</title><desc>Created with Sketch.</desc><defs><rect id="path-1" width="21.888" height="7.946" x="9.534" y="13.521" rx="3.973"/><mask id="mask-2" width="21.888" height="7.946" x="0" y="0" fill="#fff" maskContentUnits="userSpaceOnUse" maskUnits="objectBoundingBox"><use xlink:href="#path-1"/></mask><rect id="path-3" width="21.888" height="7.946" x="10.534" y="13.521" rx="3.973"/><mask id="mask-4" width="21.888" height="7.946" x="0" y="0" fill="#fff" maskContentUnits="userSpaceOnUse" maskUnits="objectBoundingBox"><use xlink:href="#path-3"/></mask></defs><g id="Page-1" fill="none" fill-rule="evenodd" stroke="none" stroke-width="1"><g id="深度看图"><g transform="translate(3.000000, 3.000000)"><circle id="Oval-43" cx="21" cy="19" r="19" fill="#E58F28"/><ellipse id="Oval-43" cx="21" cy="18" fill="#FFDC74" rx="13" ry="13"/><ellipse id="Oval-43" cx="21" cy="18" fill="#432D19" rx="10.636" ry="10.636"/><path id="Rectangle-33" fill="#E58F28" d="M9,37 L33,37 L35.4842816,41.1404694 C35.769105,41.615175 35.5526348,42 35.0018463,42 L6.99815369,42 C6.44688863,42 6.23540497,41.6076584 6.51571839,41.1404694 L9,37 Z"/><rect id="Rectangle-28" width="26" height="5" x="8" y="33" fill="#834E1D" rx="2.5"/><rect id="Rectangle-28" width="10" height="5" x="34.5" y="16.5" fill="#834E1D" rx="2.5" transform="translate(39.500000, 19.000000) rotate(-90.000000) translate(-39.500000, -19.000000)"/><rect id="Rectangle-28" width="10" height="5" x="-2.5" y="16.5" fill="#834E1D" rx="2.5" transform="translate(2.500000, 19.000000) rotate(-90.000000) translate(-2.500000, -19.000000)"/><use id="Rectangle-28" stroke="#FFDD74" stroke-width="2" mask="url(#mask-2)" transform="translate(20.478058, 17.494366) scale(-1, 1) rotate(-136.000000) translate(-20.478058, -17.494366)" xlink:href="#path-1"/><use id="Rectangle-28" stroke="#FFDD74" stroke-width="2" mask="url(#mask-4)" transform="translate(21.478058, 17.494366) rotate(-136.000000) translate(-21.478058, -17.494366)" xlink:href="#path-3"/><path id="Oval-46" fill="#5B4A3A" d="M21,7 C21.5522847,7 22,6.77614237 22,6.5 C22,6.22385763 21.5522847,6 21,6 C20.4477153,6 20,6.22385763 20,6.5 C20,6.77614237 20.4477153,7 21,7 Z"/><path id="Oval-46" fill="#5B4A3A" d="M21,30 C21.5522847,30 22,29.7761424 22,29.5 C22,29.2238576 21.5522847,29 21,29 C20.4477153,29 20,29.2238576 20,29.5 C20,29.7761424 20.4477153,30 21,30 Z"/><path id="Oval-46" fill="#5B4A3A" d="M9.5,18.5 C10.0522847,18.5 10.5,18.2761424 10.5,18 C10.5,17.7238576 10.0522847,17.5 9.5,17.5 C8.94771525,17.5 8.5,17.7238576 8.5,18 C8.5,18.2761424 8.94771525,18.5 9.5,18.5 Z" transform="translate(9.500000, 18.000000) rotate(-90.000000) translate(-9.500000, -18.000000)"/><path id="Oval-46" fill="#5B4A3A" d="M32.5,18.5 C33.0522847,18.5 33.5,18.2761424 33.5,18 C33.5,17.7238576 33.0522847,17.5 32.5,17.5 C31.9477153,17.5 31.5,17.7238576 31.5,18 C31.5,18.2761424 31.9477153,18.5 32.5,18.5 Z" transform="translate(32.500000, 18.000000) rotate(-90.000000) translate(-32.500000, -18.000000)"/></g></g></g></svg>