<svg xmlns="http://www.w3.org/2000/svg" xmlns:xlink="http://www.w3.org/1999/xlink" width="48" height="48" version="1.1" viewBox="0 0 48 48"><title>深度终端</title><desc>Created with Sketch.</desc><defs><linearGradient id="linearGradient-1" x1="50%" x2="50%" y1="116.197%" y2="14.249%"><stop offset="0%" stop-color="#353535"/><stop offset="100%" stop-color="#525252"/></linearGradient></defs><g id="Page-1" fill="none" fill-rule="evenodd" stroke="none" stroke-width="1"><g id="深度终端"><g id="Group" transform="translate(6.500000, 3.000000)"><circle id="Oval" cx="2.5" cy="1.5" r="1.5" fill="#FFC93C"/><path id="Rectangle-49-Copy" fill="url(#linearGradient-1)" d="M12.7189958,8.4750526 C12.5980477,7.93654592 12.9403634,7.5 13.5082757,7.5 L35.6735425,7.5 C36.2303978,7.5 36.7800377,7.93731068 36.900814,8.4750526 L40.2810042,23.5249474 C40.4019523,24.0634541 40.0596366,24.5 39.4917243,24.5 L17.3264575,24.5 C16.7696022,24.5 16.2199623,24.0626893 16.099186,23.5249474 L12.7189958,8.4750526 Z" transform="translate(26.500000, 16.000000) rotate(90.000000) translate(-26.500000, -16.000000)"/><path id="Path-16" stroke="#FFC93C" stroke-linecap="round" stroke-linejoin="round" stroke-width="2" d="M19.6521632,18.3860324 L27.8539403,16.6426908"/><path id="Combined-Shape" fill="#414141" d="M4,4.05128205 L4,40.4564621 C4,41.3089345 3.33420277,42 2.5,42 C1.67157288,42 1,41.3057251 1,40.4564621 L1,4.05128205 C0.447629061,4.05128205 0,3.59603608 0,3.02564103 C0,2.45919513 0.443716645,2 0.999807492,2 L4.00019251,2 C4.55237094,2 5,2.45524597 5,3.02564103 C5,3.59208692 4.55628335,4.05128205 4.00019251,4.05128205 L4,4.05128205 Z M20.0351907,3.02350918 C20.5680402,2.90379983 21,3.25265152 21,3.81074833 L21,25.1683986 C21,25.7228881 20.5662084,26.275682 20.0351907,26.4019671 C20.0351907,26.4019671 6,29.7483125 5,29.8698896 C4,29.9914668 4,31 4,31 L4,5.09718208 C4,5.09718208 4,6.18951869 5,6.18951876 C6,6.18951883 20.0351907,3.02350918 20.0351907,3.02350918 L20.0351907,3.02350918 Z"/><polyline id="Path-7" stroke="#FFC93C" stroke-linecap="round" stroke-linejoin="round" stroke-width="2" points="10 10 18 13.111 10 17"/></g></g></g></svg>