<svg xmlns="http://www.w3.org/2000/svg" xmlns:xlink="http://www.w3.org/1999/xlink" width="48" height="48" version="1.1" viewBox="0 0 48 48"><title>深度影院</title><desc>Created with Sketch.</desc><defs><linearGradient id="linearGradient-1" x1="91.318%" x2="-129.359%" y1="44.346%" y2="100%"><stop offset="0%" stop-color="#80AA3E"/><stop offset="100%" stop-color="#3D5713"/></linearGradient><linearGradient id="linearGradient-2" x1="104.929%" x2="9.082%" y1="0%" y2="103.21%"><stop offset="0%" stop-color="#ACD958"/><stop offset="100%" stop-color="#6A9723"/></linearGradient></defs><g id="Page-1" fill="none" fill-rule="evenodd" stroke="none" stroke-width="1"><g id="深度影院"><g id="Group" transform="translate(2.000000, 2.000000)"><polygon id="Path-72" fill="#335916" points="6.365 15.182 16.609 7.364 32.707 7.852 40.024 13.227 40.024 23.489 30.268 35.705 17.097 35.216 8.317 32.284 3.926 21.045"/><path id="Path-70" fill="url(#linearGradient-1)" d="M4.28811472,28.4549947 C4.93179147,26.0972269 7.0022717,24.0386091 8.5261453,23.5513052 C11.8257181,22.4961684 12.0972753,24.0548458 14.5882847,20.4084076 C17.0792941,16.7619693 17.6691784,16.3846323 22.7538368,15.6365769 C27.8384952,14.8885214 27.8345074,19.9857741 33.6311986,19.0887631 C39.4278897,18.1917521 43.1473152,23.8511185 41.6839017,28.1479786 C40.2204882,32.4448387 35.6757088,31.2824268 34.0228694,29.8758735 C32.3700299,28.4693203 30.5096746,23.3943644 28.5134007,25.3045791 C26.5171268,27.2147937 23.8107987,29.4259214 22.7538372,25.6661686 C21.6968758,21.9064158 18.2822433,24.5919537 18.7700475,26.7403837 C19.2578517,28.8888136 20.7212668,32.6485669 16.3310231,33.7227817 C11.9407794,34.7969965 10.4773644,33.1856746 9.01394969,34.796997 C7.55053498,36.4083194 8.52614508,40.2949894 8.52614508,40.2949894 C8.52614508,40.2949894 10.6827179,42.97527 9.01394954,42.6687515 C7.34518114,42.3622331 5.10095988,37.8159948 4.62370577,36.4083194 C3.95268116,34.429112 3.53806806,31.202392 4.28811472,28.4549947 Z" transform="translate(22.945446, 29.127250) rotate(188.000000) translate(-22.945446, -29.127250)"/><path id="Path-70" fill="url(#linearGradient-2)" d="M5.85074008,10.2962907 C11.2433356,7.69257026 12.7067501,10.0568537 12.2189452,5.89772735 C11.7311404,1.73860098 18.5604086,-0.630934019 20.9726911,1.97278669 C23.3849736,4.5765074 25.3629357,4.57388174 28.7775692,3.53344373 C30.5313874,2.99905573 36.7903657,3.57610862 40.0238231,8.21278914 C43.2572806,12.8494697 41.9750427,18.6197949 40.0238231,19.6602329 C38.0726036,20.7006709 36.1213824,20.0681814 34.6579695,18.0969504 C33.1945566,16.1257193 33.1945549,12.3745412 31.7043984,11.3367289 C30.8522614,10.7432621 28.7508274,10.8191356 27.3141545,13.417605 C25.8774817,16.0160743 21.1353938,15.4984808 20.0784324,11.8569477 C19.0214709,8.21541461 15.6068384,10.8165099 16.0946426,12.8973857 C16.5824468,14.9782615 18.0458619,18.6197951 13.6556182,19.6602329 C9.26537452,20.7006707 7.8019595,19.1400144 6.33854479,20.7006712 C4.87513008,22.261328 6.82634983,25.382642 6.82634983,25.382642 L4.9018718,26.4204537 C4.9018718,26.4204537 2.12138402,23.5351734 1.48723765,21.2182636 C0.501800114,17.6178805 0.458144597,12.9000111 5.85074008,10.2962907 Z"/><polygon id="Triangle-1" fill="#E7FF5D" fill-opacity=".8" points="24.262 17.994 28.989 25.434 19.536 25.434" transform="translate(24.262302, 21.714401) rotate(89.000000) translate(-24.262302, -21.714401)"/></g></g></g></svg>