<svg xmlns="http://www.w3.org/2000/svg" xmlns:xlink="http://www.w3.org/1999/xlink" width="48" height="48" version="1.1" viewBox="0 0 48 48"><title>深度用户反馈</title><desc>Created with Sketch.</desc><g id="Page-1" fill="none" fill-rule="evenodd" stroke="none" stroke-width="1"><g id="深度用户反馈"><path id="Oval-18" fill="#E3E3E3" d="M7.27027029,44 L40.72973,44 C45,44 45.0000003,38.6988867 45,38.6988867 C45,20.7133171 35.1953125,16.4907227 24,16.4907227 C12.8046875,16.4907227 3,20.6657451 3,38.6988867 C3,38.6988867 3,44 7.27027029,44 Z"/><path id="Oval-18" fill="#CDCDCD" d="M8.46525098,43.0175258 C13.6574981,43.0175258 16,40.0175258 24,40 C32,39.9824742 34.3704969,43.0175258 39.5347493,43.0175258 C43.5,43.0175258 43.5000003,38.0950635 43.5,38.0950635 C43.5,21.3941774 34.3956473,17.4731968 24,17.4731968 C13.6043527,17.4731968 4.5,21.3500034 4.5,38.0950635 C4.5,38.0950635 4.5,43.0175258 8.46525098,43.0175258 Z"/><rect id="Rectangle-51" width="10.894" height="4.232" x="18" y="13" fill="#E3E3E3"/><path id="Rectangle-51" fill="#9F5151" d="M16.0819728,5.9375 C15.8858067,5.41973305 16.1753042,5 16.7229608,5 L30.2774939,5 C30.827668,5 31.1173934,5.4124043 30.9184109,5.9375 L29.0000002,11 L17.9999999,11 L16.0819728,5.9375 Z"/><rect id="Rectangle-51" width="15" height="5" x="16" y="10" fill="#E3E3E3" rx="2.5"/><g transform="translate(22.497644, 31.478747) rotate(-126.000000) translate(-22.497644, -31.478747) translate(13.997644, 13.978747)"><polygon id="Rectangle-125" fill="#FFFAF4" points="6.227 16.439 3.894 .603 12.902 2.302 10.081 16.505 12.902 33.441 3.894 33.441" transform="translate(8.398164, 17.022172) rotate(13.000000) translate(-8.398164, -17.022172)"/><rect id="Rectangle-126" width="6.005" height="2.265" x="5.231" y="15.271" fill="#8B1B1B" transform="translate(8.232976, 16.402966) rotate(13.000000) translate(-8.232976, -16.402966)"/></g><rect id="Rectangle-52" width="9" height="3" x="19" y="15" fill="#CDCDCD"/><circle id="Oval-19" cx="14" cy="24" r="2" fill="#F1F1F1"/></g></g></svg>