<svg xmlns="http://www.w3.org/2000/svg" xmlns:xlink="http://www.w3.org/1999/xlink" width="48" height="48" version="1.1" viewBox="0 0 48 48"><title>文档查看器</title><desc>Created with Sketch.</desc><defs><linearGradient id="linearGradient-1" x1="50%" x2="50%" y1="0%" y2="100%"><stop offset="0%" stop-color="#FFCE7E"/><stop offset="100%" stop-color="#D7A76E"/></linearGradient></defs><g id="Page-1" fill="none" fill-rule="evenodd" stroke="none" stroke-width="1"><g id="文档查看器"><g id="Group" transform="translate(4.000000, 2.000000)"><path id="Rectangle-130" fill="url(#linearGradient-1)" d="M1.48559608,22.0936346 C1.48559608,12.4580368 2.12418865,2.82282289 2.12418865,2.82282289 L35.6319375,2.82282289 C35.6319375,2.82282289 33.9144325,12.1849619 33.9144325,22.0936346 C33.9144325,32.0023073 35.6319375,41.913732 35.6319375,41.913732 L2.12418865,41.913732 C2.12418865,41.913732 1.48559608,31.7292323 1.48559608,22.0936346 Z" transform="translate(18.558767, 22.368277) rotate(-3.000000) translate(-18.558767, -22.368277)"/><path id="Rectangle-130" fill="#FFEAB9" d="M9.22428341,18.4818282 C9.22428341,10.6636464 10.1971301,2.84546456 10.1971301,2.84546456 L36.5413566,2.84546456 C36.5413566,2.84546456 35.5877907,13.0486054 35.5877907,20.0744025 C35.5877907,27.1001996 36.5413566,34.1181918 36.5413566,34.1181918 L10.1971301,34.1181918 C10.1971301,34.1181918 9.22428341,26.30001 9.22428341,18.4818282 Z" transform="translate(22.882820, 18.481828) rotate(-14.000000) translate(-22.882820, -18.481828)"/><ellipse id="Oval-196" cx="20.311" cy="3.732" fill="#782B07" rx="1.463" ry="1.466" transform="translate(20.310562, 3.731546) rotate(-14.000000) translate(-20.310562, -3.731546)"/></g></g></g></svg>