<svg xmlns="http://www.w3.org/2000/svg" xmlns:svg="http://www.w3.org/2000/svg" id="图层_1" width="100%" height="100%" version="1.1" viewBox="0 0 48 48" xml:space="preserve"><metadata id="metadata51"/><defs id="defs49"><linearGradient id="SVGID_1_" x1="24" x2="24.002" y1="5" y2="43.135" gradientUnits="userSpaceOnUse"><stop id="stop4284" offset="0" style="stop-color:#f6f9fb;stop-opacity:1"/><stop style="stop-color:#d1dfec;stop-opacity:1" id="stop20" offset="1"/></linearGradient><linearGradient id="path3267_1_" x1="577.945" x2="621.064" y1="-1049.799" y2="-1049.799" gradientTransform="matrix(0.7031,0,0,-0.6996,-397.9468,-711.4778)" gradientUnits="userSpaceOnUse"><stop style="stop-color:#f3cb20;stop-opacity:.30000001" id="stop30" offset="0"/><stop style="stop-color:#f3cb20;stop-opacity:1" id="stop32" offset=".22"/><stop style="stop-color:#f3cb20;stop-opacity:1" id="stop34" offset=".561"/><stop style="stop-color:#f3cb20;stop-opacity:.2" id="stop36" offset="1"/></linearGradient></defs><style id="style3" type="text/css"/><path id="path4290" d="m 43.494742,43.450518 c 0,0.58106 -0.45979,1.05264 -1.02632,1.05264 l -36.9473636,0 c -0.5665271,0 -1.0263161,-0.47158 -1.0263161,-1.05264 l 0,-37.8947281 c 0,-0.5810535 0.459789,-1.0526319 1.0263161,-1.0526319 l 36.9473636,0 c 0.56653,0 1.02632,0.4715784 1.02632,1.0526319 l 0,37.8947281 z" style="opacity:.05;fill:#000"/><path style="opacity:.1;fill:#000" id="path4288" d="m 42.998127,42.982406 c 0,0.56653 -0.448,1.02632 -1.000011,1.02632 l -35.9999888,0 c -0.5520005,0 -1.0000001,-0.45979 -1.0000001,-1.02632 l 0,-36.9473652 c 0,-0.5665265 0.4479996,-1.0263159 1.0000001,-1.0263159 l 35.9999888,0 c 0.552011,0 1.000011,0.4597894 1.000011,1.0263159 l 0,36.9473652 z"/><path id="path4286" d="m 43.003122,42.539575 c 0,0.559265 -0.448,1.01316 -1.000007,1.01316 l -35.9999921,0 c -0.5520001,0 -1.0000001,-0.453895 -1.0000001,-1.01316 l 0,-36.4736821 c 0,-0.559263 0.448,-1.0131579 1.0000001,-1.0131579 l 35.9999921,0 c 0.552007,0 1.000007,0.4538949 1.000007,1.0131579 l 0,36.4736821 z" style="opacity:.13999999;fill:#000"/><g id="g5" style="opacity:.6;display:none"><rect id="rect7" width="48" height="48" x="-.003" y="-.005" style="opacity:.4;display:inline"/></g><path style="fill:url(#SVGID_1_)" id="path22" d="m 43.002,42.003 c 0,0.552 -0.448,1 -1,1 l -36,0 c -0.552,0 -1,-0.448 -1,-1 l 0,-36 c 0,-0.552 0.448,-1 1,-1 l 36,0 c 0.552,0 1,0.448 1,1 l 0,36 z"/><rect style="fill:#362b18;fill-opacity:1;fill-rule:evenodd;stroke:none;stroke-width:1px;stroke-linecap:butt;stroke-linejoin:miter;stroke-opacity:1" id="rect4282" width="32" height="32" x="8" y="8"/><path style="fill:url(#path3267_1_)" id="path3267_13_" d="m 13.972,12.185 -2.435,13.81 -3.5486542,0.02861 0,1 L 12.483,26.995 l 2.016,-11.419 2.892,17.876 0.553,3.09 0.553,-3.069 1.243,-8.478 4.278,0 0.63,-1.935 1.998,7.131 1.473,-3.196 11.876952,0.0042 0,-1 L 27.417,25.995 l -0.489,1.062 -2.209,-7.903 -1.525,4.841 -4.417,0 -0.86,5.77 -2.84,-17.476 -0.544,-2.908 z"/><path style="fill:#f0c512" id="path5749_13_" d="m 30.367,33.328 c 0,1.163 1.329,1.807 2.077,2.525 0.784,-0.751 2.061,-1.47 2.061,-2.525 0,-0.99 -1.696,-1.326 -2.07,-0.174 -0.431,-1.125 -2.068,-0.918 -2.068,0.174 z"/><text style="font-size:5.03495264px;font-family:Arial-BoldMT;fill:#f0c512" id="text40" x="22.63" y="37.005" transform="scale(1.0334892,0.96759595)">49</text><path style="fill:#f0c512" id="rect5784_13_" d="m 30.251,18.995 3.31,0 c 0.228,0 0.426,0.129 0.426,0.298 l 0,0.307 c 0,0.169 -0.197,0.395 -0.426,0.395 l -3.31,0 c -0.229,0 -0.265,-0.226 -0.265,-0.395 l 0,-0.307 c 10e-4,-0.169 0.036,-0.298 0.265,-0.298 z"/><path style="fill:#f0c512" id="rect5814_26_" d="m 30.251,16.995 3.31,0 c 0.228,0 0.426,0.18 0.426,0.35 l 0,0.307 c 0,0.168 -0.197,0.343 -0.426,0.343 l -3.31,0 c -0.229,0 -0.265,-0.175 -0.265,-0.343 l 0,-0.307 c 10e-4,-0.17 0.036,-0.35 0.265,-0.35 z"/><path style="opacity:.8;fill:#f0c512;enable-background:new" id="rect5814_25_" d="m 30.251,14.995 3.31,0 c 0.228,0 0.426,0.18 0.426,0.35 l 0,0.307 c 0,0.168 -0.197,0.343 -0.426,0.343 l -3.31,0 c -0.229,0 -0.265,-0.175 -0.265,-0.343 l 0,-0.307 c 10e-4,-0.17 0.036,-0.35 0.265,-0.35 z"/><path style="opacity:.608;fill:#f0c512;enable-background:new" id="rect5818_13_" d="m 30.329,12.995 3.31,0 c 0.228,0 0.348,0.157 0.348,0.326 l 0,0.308 c 0,0.169 -0.119,0.366 -0.348,0.366 l -3.31,0 c -0.229,0 -0.343,-0.197 -0.343,-0.366 l 0,-0.308 c 10e-4,-0.169 0.114,-0.326 0.343,-0.326 z"/><path style="opacity:.5;fill:#f0c512;enable-background:new" id="rect5820_13_" d="m 30.329,10.995 3.31,0 c 0.228,0 0.348,0.161 0.348,0.331 l 0,0.308 c 0,0.168 -0.119,0.362 -0.348,0.362 l -3.31,0 c -0.229,0 -0.343,-0.193 -0.343,-0.362 l 0,-0.308 c 10e-4,-0.17 0.114,-0.331 0.343,-0.331 z"/></svg>