<svg xmlns="http://www.w3.org/2000/svg" xmlns:svg="http://www.w3.org/2000/svg" id="svg2" width="48" height="48" version="1.1" viewBox="0 0 48 48"><defs id="defs4"><filter style="color-interpolation-filters:sRGB" id="filter6329" width="1.072" height="1.072" x="-.036" y="-.036"><feGaussianBlur id="feGaussianBlur6331" stdDeviation=".63"/></filter></defs><metadata id="metadata7"/><g id="layer1" transform="translate(0,-1004.3622)"><path style="opacity:.3;fill:#000;fill-opacity:1;fill-rule:evenodd;stroke:none;stroke-width:1px;stroke-linecap:butt;stroke-linejoin:miter;stroke-opacity:1;filter:url(#filter6329)" id="path6266" d="m 10.03125,1008.2997 -6.9999999,16 5.673828,0.4063 -4.673828,7.5937 6.0156249,5.1895 0,1.1601 -3.0156249,9.6504 12.1445309,-4.25 8.855469,6.25 17,-7 0,-24 -13,-10 -4.974609,5.5273 -4.025391,-4.5273 -13,-2 z"/><g id="g4962"><path id="path4958" d="m 4,1031.3622 8,-13 15,12 -2,11 -10.910318,-1.296 z" style="fill:#f2912c;fill-opacity:1;fill-rule:evenodd;stroke:none;stroke-width:1px;stroke-linecap:butt;stroke-linejoin:miter;stroke-opacity:1"/><path id="path4960" d="m 7,1047.3622 5,-16 15,9 z" style="fill:#9f5ba1;fill-rule:evenodd;stroke:none;stroke-width:1px;stroke-linecap:butt;stroke-linejoin:miter;stroke-opacity:1;fill-opacity:1"/><path id="path4956" d="m 10,1007.3622 13,2 8,9 0,7 -28,-2 z" style="fill:#f94275;fill-rule:evenodd;stroke:none;stroke-width:1px;stroke-linecap:butt;stroke-linejoin:miter;stroke-opacity:1;fill-opacity:1"/><path id="path4948" d="m 32,1008.3622 13,10 0,24 -17,7 -17,-12 3,-9 z" style="fill:#1c81ef;fill-rule:evenodd;stroke:none;stroke-width:1px;stroke-linecap:butt;stroke-linejoin:miter;stroke-opacity:1;fill-opacity:1"/><path id="rect4270" d="m 11.018951,1014.3935 c -0.556101,0 -1.003906,0.4389 -1.003906,0.9843 l 0,26.0313 c 0,0.5454 0.447805,0.9844 1.003906,0.9844 l 25.992188,0 c 0.5561,0 1.003906,-0.439 1.003906,-0.9844 l 0,-26.0313 c 0,-0.5454 -0.447806,-0.9843 -1.003906,-0.9843 z" style="opacity:1;fill:#000;fill-opacity:1;stroke:none;stroke-width:.5;stroke-opacity:1"/><path style="opacity:1;fill:#fff;fill-opacity:1;stroke:none;stroke-width:.5;stroke-opacity:1" id="path4950" d="m 14.001455,1018.3436 6.005859,0.01 -0.0039,2.0079 -1.996094,0 -0.0059,6.0078 2.013672,-0.01 0,2 -6.003906,0 0,-2 1.996093,0 0.0078,-6.0098 -2.013672,0.012 0,-2.0156 z m 12.982422,0.01 2,0 0,6 c 0,2.216 -1.784,4 -4,4 -1.5465,0 -2.867033,-0.878 -3.533203,-2.1562 l 1.9375,-0.6445 c 0.36427,0.485 0.939693,0.8027 1.595703,0.8027 1.108,0 2,-0.892 2,-2 z"/><rect id="rect4954" width="10" height="2" x="14.02" y="1033.383" rx="0" ry="0" style="opacity:1;fill:#fff;fill-opacity:1;stroke:none;stroke-width:.5;stroke-opacity:1"/></g></g></svg>