<svg xmlns="http://www.w3.org/2000/svg" xmlns:svg="http://www.w3.org/2000/svg" id="svg2" width="64" height="64" version="1.1" viewBox="0 0 64 64"><metadata id="metadata7"/><g id="layer1" transform="translate(0,-1058.5196)"><rect style="fill:#2c3e50;fill-opacity:1;stroke:none" id="rect4148" width="56" height="52" x="4" y="1064.52"/><path style="opacity:1;fill:#34495e;fill-opacity:1;stroke:none;stroke-opacity:1" id="rect4151" d="m 4,1063.5196 c -0.554038,0 -1,0.446 -1,1 l 0,51 0,1 c 0,0.554 0.445962,1 1,1 l 1,0 55,0 c 0.554038,0 1,-0.446 1,-1 l 0,-52 c 0,-0.554 -0.445962,-1 -1,-1 l -55,0 -1,0 z m 1,4 54,0 0,48 -54,0 0,-48 z"/><circle style="opacity:1;fill:#ecf0f1;fill-opacity:1;stroke:none;stroke-opacity:1" id="path4155" cx="58" cy="1065.52" r="1"/><rect style="opacity:1;fill:#03c9a9;fill-opacity:1;stroke:none;stroke-opacity:1" id="rect4153" width="54" height="1.019" x="5" y="1067.52"/><path style="opacity:1;fill:#2c3e4f;fill-opacity:1;stroke:none;stroke-width:.1;stroke-linecap:square;stroke-linejoin:miter;stroke-miterlimit:4;stroke-dasharray:none;stroke-dashoffset:0;stroke-opacity:1" id="rect4171" d="m 3,1116.5196 c 0,0.554 0.445962,1 1,1 l 56,0 c 0.554038,0 1,-0.446 1,-1 l -58,0 z"/><rect style="opacity:1;fill:#dadfe1;fill-opacity:1;stroke:none;stroke-opacity:1" id="rect4211" width="39" height="1" x="5" y="1108.52"/><circle style="opacity:1;fill:#dadfe1;fill-opacity:1;stroke:none;stroke-width:1.24999976;stroke-linecap:round;stroke-linejoin:miter;stroke-miterlimit:4;stroke-dasharray:none;stroke-opacity:.29943501" id="path4162" cx="43.5" cy="1109.019" r="2.5"/><circle id="circle4164" cx="43.5" cy="1109.019" r="1.5" style="opacity:1;fill:#6c7a89;fill-opacity:1;stroke:none;stroke-width:.74999976;stroke-linecap:round;stroke-linejoin:miter;stroke-miterlimit:4;stroke-dasharray:none;stroke-opacity:.29943501"/><path style="fill:#dadfe1;fill-opacity:1;fill-rule:evenodd;stroke:none;stroke-width:.77349252px;stroke-linecap:butt;stroke-linejoin:miter;stroke-opacity:1" id="path4240" d="m 25,1097.5196 0,-20 14,10.7693 z"/></g></svg>