<svg xmlns="http://www.w3.org/2000/svg" xmlns:xlink="http://www.w3.org/1999/xlink" id="图层_1" x="0" y="0" enable-background="new 0 0 48 48" version="1.1" viewBox="0 0 48 48" xml:space="preserve"><linearGradient id="SVGID_1_" x1="24" x2="24" y1="2" y2="46" gradientUnits="userSpaceOnUse"><stop offset="0" style="stop-color:#62ceff"/><stop offset="1" style="stop-color:#0b8bcb"/></linearGradient><path fill="url(#SVGID_1_)" d="M46,39.4c0,3.6-3,6.6-6.6,6.6H8.6C5,46,2,43,2,39.4V8.6C2,5,5,2,8.6,2h30.8C43,2,46,5,46,8.6V39.4z"/><g><path fill="#F1F2F3" d="M38,28.4c0,2.9-2.4,5.6-5.4,5.6H15.4c-3,0-5.4-2.7-5.4-5.6v-6.1c0-2.9,1.5-4.3,4.5-4.3h19 c3,0,4.5,1.4,4.5,4.3V28.4z"/><path fill="#DCDDDD" d="M10,26v5.1c0,1.8,0.9,2.9,2.7,2.9h22.6c1.8,0,2.7-1.2,2.7-2.9V26H10z"/><rect width="18" height="3" x="15" y="18" fill="#2B2D2F"/><rect width="18" height="3" x="15" y="30" fill="#2B2D2F"/><rect width="16" height="3" x="16" y="33" fill="#BFC2C9"/><rect width="16" height="6" x="16" y="12" fill="#BFC2C9"/><rect width="12" height="9" x="18" y="32" fill="#F9F9FA"/><polygon fill="#F9F9FA" points="30 18 18 18 18 7 27 7 30 10.8"/></g><circle cx="35" cy="23" r="1" fill="#00913A"/><circle cx="35" cy="27" r="1" fill="#C30D23"/></svg>