<svg xmlns="http://www.w3.org/2000/svg" xmlns:xlink="http://www.w3.org/1999/xlink" width="48" height="48" version="1.1" viewBox="0 0 48 48"><title>有道词典</title><desc>Created with Sketch.</desc><defs><rect id="path-1" width="4.046" height="2.025" x="4.372" y="16.636" rx="1.012"/><mask id="mask-2" width="4.046" height="2.025" x="0" y="0" fill="#fff" maskContentUnits="userSpaceOnUse" maskUnits="objectBoundingBox"><use xlink:href="#path-1"/></mask><path id="path-3" d="M3.17658103,18.137051 C3.25424748,17.5929094 3.76612298,17.1517955 4.31673313,17.1517955 L4.34043679,17.1517955 C4.89245895,17.1517955 5.40322746,17.5950464 5.48058889,18.137051 L6.21071016,23.252379 C6.28837662,23.7965206 6.14143821,24.6279834 5.84695751,25.0962156 C5.84695751,25.0962156 5.38080975,26.26216 4.35722745,26.26216 C3.33364516,26.26216 2.82615149,25.0844852 2.82615149,25.0844852 C2.53878708,24.6167825 2.36909832,23.7943836 2.44645975,23.252379 L3.17658103,18.137051 Z"/><mask id="mask-4" width="3.781" height="9.11" x="0" y="0" fill="#fff" maskContentUnits="userSpaceOnUse" maskUnits="objectBoundingBox"><use xlink:href="#path-3"/></mask></defs><g id="Page-1" fill="none" fill-rule="evenodd" stroke="none" stroke-width="1"><g id="有道词典"><g transform="translate(5.000000, 5.000000)"><path id="Rectangle-176" fill="#FFC527" d="M5.55694227e-14,31.9963379 L5.32907052e-14,6 C5.32907052e-14,6 5.59558909e-14,-4.46512369e-13 6,-4.93826085e-13 C6.01079553,-4.94089763e-13 36,-4.4756708e-13 36,-4.49379867e-13 C38,-4.4756708e-13 38,2 38,2 L38,32 C38,32 38,38 32,38 C32,38 6.06567383,38 6,38 C5.39042665e-14,38 5.55694227e-14,31.9963379 5.55694227e-14,31.9963379 Z" transform="translate(19.000000, 19.000000) rotate(-360.000000) translate(-19.000000, -19.000000)"/><g id="Group-23" transform="translate(20.362098, 18.918076) rotate(6.000000) translate(-20.362098, -18.918076) translate(10.047812, 5.346648)"><ellipse id="Oval-176" cx="10.527" cy="9.53" fill="#D18200" fill-opacity=".6" rx="7.08" ry="7.086" transform="translate(10.527290, 9.530432) rotate(27.000000) translate(-10.527290, -9.530432)"/><ellipse id="Oval-176" cx="10.527" cy="9.53" stroke="#FFF" stroke-width="2" rx="7.08" ry="7.086" transform="translate(10.527290, 9.530432) rotate(27.000000) translate(-10.527290, -9.530432)"/><use id="Rectangle-161" fill="#793A08" stroke="#793A08" stroke-width="2" mask="url(#mask-2)" transform="translate(6.394893, 17.647827) rotate(27.000000) translate(-6.394893, -17.647827)" xlink:href="#path-1"/><use id="Rectangle-162" fill="#793A08" stroke="#793A08" stroke-width="2" mask="url(#mask-4)" transform="translate(4.329584, 21.706978) rotate(27.000000) translate(-4.329584, -21.706978)" xlink:href="#path-3"/><ellipse id="Oval-177" cx="9.858" cy="5.238" fill="#FFF" rx="1.011" ry="1.012" transform="translate(9.858075, 5.238080) rotate(27.000000) translate(-9.858075, -5.238080)"/></g></g></g></g></svg>