<svg xmlns="http://www.w3.org/2000/svg" xmlns:xlink="http://www.w3.org/1999/xlink" width="48" height="48" version="1.1" viewBox="0 0 48 48"><title>android-device-48px</title><desc>Created with Sketch.</desc><defs><rect id="path-1" width="24" height="40" x="12" y="4" rx="2"/><mask id="mask-2" width="24" height="40" x="0" y="0" fill="#fff" maskContentUnits="userSpaceOnUse" maskUnits="objectBoundingBox"><use xlink:href="#path-1"/></mask></defs><g id="Page-1" fill="none" fill-rule="evenodd" stroke="none" stroke-width="1"><g id="android-device-48px"><use id="Rectangle-19" fill="#FFF" stroke="#B2B2B2" mask="url(#mask-2)" xlink:href="#path-1"/><g id="Group" fill="#8B8B8B" transform="translate(25.000000, 7.000000) rotate(180.000000) translate(-25.000000, -7.000000) translate(19.500000, 6.000000)"><path id="Oval-11" d="M3,1.75 C3.27614237,1.75 3.5,1.52614237 3.5,1.25 C3.5,0.973857625 3.27614237,0.75 3,0.75 C2.72385763,0.75 2.5,0.973857625 2.5,1.25 C2.5,1.52614237 2.72385763,1.75 3,1.75 Z"/><path id="Oval-11" d="M1,1.75 C1.27614237,1.75 1.5,1.52614237 1.5,1.25 C1.5,0.973857625 1.27614237,0.75 1,0.75 C0.723857625,0.75 0.5,0.973857625 0.5,1.25 C0.5,1.52614237 0.723857625,1.75 1,1.75 Z"/><rect id="Rectangle" width="6" height=".5" x="5" y="1" rx=".25"/></g><rect id="Rectangle-22" width="6" height="2" x="21" y="40" fill="#8B8B8B" rx="1"/><rect id="Rectangle-21" width="22" height="30" x="13" y="9" fill="#1E1C1C"/><polygon id="Rectangle-21" fill="#393737" points="13 9 35 9 13 39"/></g></g></svg>