<svg xmlns="http://www.w3.org/2000/svg" xmlns:xlink="http://www.w3.org/1999/xlink" width="48" height="48" version="1.1" viewBox="0 0 48 48"><title>camera-48px</title><desc>Created with Sketch.</desc><g id="Page-1" fill="none" fill-rule="evenodd" stroke="none" stroke-width="1"><g id="camera-48px"><path id="Rectangle-23" fill="#626262" d="M4,16.2568935 C4,15.7008016 4.45720427,15.25 5.00133709,15.25 L18.7368421,15.25 L18.7368421,12.9927666 C18.7368421,12.4444768 19.1753315,12 19.7271878,12 L43.0096543,12 C43.5566071,12 44,12.4512787 44,13.0032996 L44,36.9967004 C44,37.5508075 43.5507812,38 42.9912248,38 L5.00877516,38 C4.45164402,38 4,37.5455601 4,36.9931065 L4,16.2568935 Z"/><rect id="Rectangle-24" width="40" height="10" x="4" y="21" fill="#3C3C3B"/><circle id="Oval" cx="28" cy="25" r="9" fill="#F0F0F0" stroke="#30DCB5" stroke-width="1.5"/><circle id="Oval-2" cx="28" cy="25" r="7" fill="#3C3C3C"/><polygon id="Star" fill="#FFDF47" points="27.096 25.904 24 25 27.096 24.096 28 21 28.904 24.096 32 25 28.904 25.904 28 29"/><circle id="Oval-13" cx="21" cy="14" r="1" fill="#FFF"/><rect id="Rectangle-2" width="4" height="1" x="36" y="13" fill="#3C3C3C"/><rect id="Rectangle-2" width="4" height="1" x="36" y="14" fill="#30DCB4"/><g id="Group" fill="#30DCB4" transform="translate(5.000000, 13.000000)"><rect id="Rectangle" width="4" height="2.261" x="0" y="0"/><rect id="Rectangle" width="3" height="2.261" x="5" y="0"/><rect id="Rectangle" width="3" height="2.261" x="9" y="0"/></g></g></g></svg>