<svg xmlns="http://www.w3.org/2000/svg" xmlns:xlink="http://www.w3.org/1999/xlink" width="48" height="48" version="1.1" viewBox="0 0 48 48"><title>计算机</title><desc>Created with Sketch.</desc><defs><filter id="filter-1" width="200%" height="200%" x="-50%" y="-50%" filterUnits="objectBoundingBox"><feOffset dx="0" dy="1" in="SourceAlpha" result="shadowOffsetOuter1"/><feGaussianBlur in="shadowOffsetOuter1" result="shadowBlurOuter1" stdDeviation=".5"/><feColorMatrix in="shadowBlurOuter1" result="shadowMatrixOuter1" type="matrix" values="0 0 0 0 0 0 0 0 0 0 0 0 0 0 0 0 0 0 0.3 0"/><feMerge><feMergeNode in="shadowMatrixOuter1"/><feMergeNode in="SourceGraphic"/></feMerge></filter><linearGradient id="linearGradient-2" x1="48.951%" x2="48.951%" y1="-17.236%" y2="152.824%"><stop offset="0%" stop-color="#FFFFFFFB001A"/><stop offset="0%" stop-color="#000126"/><stop offset="100%" stop-color="#271582"/></linearGradient><polygon id="path-3" points="2.005 2.029 37.964 2.029 37.964 24.975 2.005 24.975"/><mask id="mask-5" width="37.959" height="24.946" x="-1" y="-1" maskContentUnits="userSpaceOnUse" maskUnits="objectBoundingBox"><rect width="37.959" height="24.946" x="1.005" y="1.029" fill="#fff"/><use fill="#000" xlink:href="#path-3"/></mask></defs><g id="Page-1" fill="none" fill-rule="evenodd" stroke="none" stroke-width="1"><g id="计算机"><g id="Group"><rect id="Rectangle-55" width="48" height="48" x="0" y="0" opacity=".624"/><g id="Group-4" filter="url(#filter-1)" transform="translate(4.000000, 7.000000)"><rect id="Rectangle-5" width="40" height="32" x="0" y="0" fill="#EDEDED"/><rect id="Rectangle-5" width="36" height="23.018" x="2" y="1.982" fill="#29333C"/><rect id="Rectangle-133" width="8" height="3" x="16" y="32" fill="#A9BAC3"/><rect id="Rectangle-136" width="18" height="2" x="11" y="34" fill="#EDEDED" rx="1"/><mask id="mask-4" fill="#fff"><use xlink:href="#path-3"/></mask><g id="Rectangle-path"><use fill="url(#linearGradient-2)" fill-rule="evenodd" xlink:href="#path-3"/><use stroke="#000" stroke-width="2" mask="url(#mask-5)" xlink:href="#path-3"/></g><g id="Group-3" mask="url(#mask-4)"><g id="Group-2"><g transform="translate(1.000000, 11.000000) translate(0.048124, 0.000000)"><polygon id="Shape" fill="#3310B5" points=".959 10.469 5.023 8.749 7.809 9.761 13.085 6.957 19.572 .724 20.996 2.473 21.766 2.473 22.488 1.622 25.154 4.443 26.079 3.741 36.964 10.198 36.964 13.946 .952 13.946"/><polygon id="Shape" fill="#4722CD" points="22.556 4.185 24.066 3.291 22.493 1.622"/><polygon id="Shape" fill="#3917C9" points="23.873 4.452 25.174 5.385 24.981 3.291" transform="translate(24.523344, 4.338226) scale(-1, 1) translate(-24.523344, -4.338226)"/><polygon id="Shape" fill="#3913C4" points="24.066 4.185 22.749 5.385 22.556 3.291" transform="translate(23.310668, 4.338226) scale(-1, 1) translate(-23.310668, -4.338226)"/><polyline id="Shape" fill="#9793DF" points="19.572 8.636 26.078 3.741 26.733 9.821 24.009 8.191 19.572 8.636"/><polyline id="Shape" fill="#4C2FE1" points="19.572 8.636 26.078 3.741 26.733 9.821 24.009 8.191 19.572 8.636"/><polygon id="Shape" fill="#6843E6" points="7.801 9.759 5.019 8.745 13.085 6.957"/><polygon id="Shape" fill="#8965EB" points="10.375 8.393 5.019 8.745 13.085 6.957"/><polygon id="Shape" fill="#4720E3" points="7.801 9.759 5.019 8.745 .01 10.854"/><polygon id="Shape" fill="#633EE6" points="7.801 9.759 5.019 8.745 2.528 9.799 3.602 10.35"/><polygon id="Shape" fill="#AF67F3" points="15.597 8.191 13.085 6.957 19.572 .724"/><polygon id="Shape" fill="#8965EB" points="15.597 8.191 13.085 6.957 17.409 4.786"/><polygon id="Shape" fill="#6F50E7" points="15.597 8.191 19.572 .724 19.976 2.588"/><polygon id="Shape" fill="#8959EE" points="17.408 4.788 19.572 .724 19.976 2.588"/><polygon id="Shape" fill="#8E65EA" points="22.488 1.622 21.045 3.305 21.67 4.452 22.556 4.185"/><polygon id="Shape" fill="#A964EB" points="22.488 1.622 21.045 3.305 21.67 4.452"/><polygon id="Shape" fill="#7052E9" points="21.045 3.306 19.321 6.05 20.476 6.05 21.67 4.452"/><polygon id="Shape" fill="#5E3DE5" points="21.045 3.306 19.321 6.05 20.476 6.05"/><polygon id="Shape" fill="#6D4FEF" points="7.801 9.759 14.173 9.48 13.085 6.957"/><polygon id="Shape" fill="#3C12D1" points="7.801 9.759 14.173 9.48 16.148 10.045 6.982 13.946"/><polygon id="Shape" fill="#5F41EF" points="13.085 6.957 14.173 9.48 15.597 8.191"/><polygon id="Combined-Shape" fill="#6037F2" points="24 8.192 19.572 8.592 6.856 14 10.746 14 24 10.536 24 8.192"/><polygon id="Shape" fill="#542CE6" points="19.572 8.592 20.335 8.524 15.597 12.729 12.377 11.645"/><polygon id="Shape" fill="#7B4BEB" points="26.079 3.741 19.572 8.592 24.011 8.191 26.133 4.25"/><polygon id="Shape" fill="#3612C1" points="36.964 10.198 26.079 3.741 36.969 13.946"/><polygon id="Shape" fill="#3C1EC2" points="36.964 13.946 26.733 9.821 32.642 13.946"/><polygon id="Shape" fill="#4F2EE1" points="17.777 5.399 19.572 8.592 15.597 8.191"/><polygon id="Shape" fill="#4522D5" points="17.777 5.399 19.572 8.592 20.148 6.546 19.321 6.05"/><polyline id="Shape" fill="#3D1BCA" points="22.556 4.185 23.873 5.385 22.674 6.279 21.675 4.452"/><polyline id="Shape" fill="#4826D9" points="20.475 6.05 21.495 7.159 22.674 6.279 21.675 4.452"/><polygon id="Shape" fill="#421FCC" points="19.415 3.307 20.414 4.305 19.321 6.05 17.777 5.399"/><polygon id="Shape" fill="#7863D3" points="19.976 2.588 21.045 3.306 20.414 4.318 19.415 3.306"/><polygon id="Shape" fill="#4A26D4" points="19.976 2.588 21.045 3.306 20.414 4.318 19.415 3.306"/><polygon id="Shape" fill="#4F2BD9" points="19.976 2.588 21.045 3.306 20.414 4.318"/><polygon id="Shape" fill="#6548DB" points="19.321 6.05 20.473 6.05 20.148 6.573"/><polygon id="Shape" fill="#563AD7" points="21.495 7.159 20.473 6.05 20.148 6.546"/><polygon id="Shape" fill="#502ED8" points="14.172 9.477 15.597 8.191 16.148 10.045"/><polygon id="Shape" fill="#4721DA" points="14.172 9.477 12.377 11.645 16.148 10.045"/><polygon id="Shape" fill="#4826D5" points="19.572 8.592 15.597 8.191 16.148 10.045"/><polygon id="Shape" fill="#7E65D9" points="20.149 6.546 19.572 8.592 21.495 7.159"/><polygon id="Shape" fill="#5E3ADB" points="20.149 6.546 19.572 8.592 21.495 7.159"/><polygon id="Shape" fill="#4627D2" points=".01 13.946 7.801 9.759 6.982 13.946"/><polygon id="Shape" fill="#3F14D7" points=".01 13.946 7.335 12.136 6.982 13.946"/><polygon id="Shape" fill="#3416C2" points=".01 13.946 7.801 9.759 3.613 10.348"/><polygon id="Shape" fill="#3918D4" points=".01 13.946 .01 10.854 3.613 10.348"/><polygon id="Shape" fill="#4224CA" points="10.972 13.946 26.733 9.821 32.642 13.946"/><polygon id="Shape" fill="#4624D8" points="12.398 11.645 15.597 12.731 10.972 13.946 6.982 13.946"/><polygon id="Shape" fill="#664BE3" points="20.335 8.523 19.572 8.592 21.495 7.159"/><polygon id="Shape" fill="#9E58E4" points="26.079 3.741 26.133 4.25 21.495 7.159"/></g></g></g><polygon id="Rectangle-5" fill="#D9D9D9" points="2 1.982 12.421 1.982 26.632 25 2 25" mask="url(#mask-4)" opacity=".1" style="mix-blend-mode:lighten"/></g></g></g></g></svg>