<svg xmlns="http://www.w3.org/2000/svg" xmlns:xlink="http://www.w3.org/1999/xlink" width="48" height="48" version="1.1" viewBox="0 0 48 48"><title>drive-removable-media-scsi-48px</title><desc>Created with Sketch.</desc><defs><linearGradient id="linearGradient-1" x1="50%" x2="50%" y1="0%" y2="100%"><stop offset="0%" stop-color="#E362CA"/><stop offset="100%" stop-color="#E3147D"/></linearGradient></defs><g id="Page-1" fill="none" fill-rule="evenodd" stroke="none" stroke-width="1"><g id="drive-removable-media-scsi-48px"><g id="Group" transform="translate(7.500000, 4.000000)"><rect id="Rectangle-11" width="32" height="38" x="0" y="0" fill="url(#linearGradient-1)" rx="2"/><circle id="Oval-7" cx="29.25" cy="2.75" r=".75" fill="#FFF"/><rect id="Rectangle-11" width="32" height="6" x="0" y="34" fill="#6E1268" rx="2" transform="translate(16.000000, 37.000000) rotate(180.000000) translate(-16.000000, -37.000000)"/><circle id="Oval-7" cx="2.75" cy="2.75" r=".75" fill="#FFF"/><path id="Oval-7" fill="#1CF892" d="M29.25,38 C29.6642136,38 30,37.6642136 30,37.25 C30,36.8357864 29.6642136,36.5 29.25,36.5 C28.8357864,36.5 28.5,36.8357864 28.5,37.25 C28.5,37.6642136 28.8357864,38 29.25,38 Z"/><rect id="Rectangle" width="1" height="3" x="2" y="35" fill="#1CF892" rx=".5"/><rect id="Rectangle" width="1" height="3" x="4" y="35" fill="#1CF892" rx=".5"/><rect id="Rectangle" width="1" height="3" x="6" y="35" fill="#1CF892" rx=".5"/></g><g id="Group" fill="#FFF" transform="translate(15.000000, 12.000000)"><rect id="Rectangle-path" width="1.482" height="8.149" x="8.263" y="9.014"/><polygon id="Shape" points="6.782 12.473 3.282 9.014 9.027 3.249 14.739 9.014 11.226 12.473 11.226 14.779 17.034 9.014 8.985 .942 .965 9.014 6.782 14.779"/></g><path id="Oval-7" fill="#FFF" d="M10.25,36 C10.6642136,36 11,35.6642136 11,35.25 C11,34.8357864 10.6642136,34.5 10.25,34.5 C9.83578644,34.5 9.5,34.8357864 9.5,35.25 C9.5,35.6642136 9.83578644,36 10.25,36 Z"/><circle id="Oval-7" cx="36.75" cy="35.25" r=".75" fill="#FFF"/></g></g></svg>