<svg xmlns="http://www.w3.org/2000/svg" xmlns:xlink="http://www.w3.org/1999/xlink" id="图层_1" x="0" y="0" version="1.1" viewBox="0 0 16 16" xml:space="preserve" style="enable-background:new 0 0 16 16"><path style="fill:#9fa0a0" d="M12.116,6.088V3.863H9.891v2.225h0.831v1.039c0,0.313-0.037,0.437-0.29,0.673L7.963,9.476V2.718	h1.375L7.703,0.006L6.009,2.718h1.4v8.395L4.941,9.435c-0.253-0.236-0.29-0.359-0.29-0.673V7.635	C5.107,7.497,5.446,7.091,5.446,6.59c0-0.613-0.498-1.107-1.108-1.107c-0.612,0-1.108,0.494-1.108,1.107	c0,0.539,0.393,0.967,0.903,1.066v1.147H4.131c0,0.702,0.441,0.961,0.441,0.961l2.837,1.991v0.945	c-0.796,0.124-1.405,0.805-1.405,1.635c0,0.917,0.743,1.66,1.661,1.66c0.917,0,1.662-0.742,1.662-1.66c0-0.816-0.59-1.49-1.365-1.63	V10.12L10.8,8.13c0,0,0.441-0.26,0.441-0.961h-0.002V6.088H12.116z"/></svg>