<svg xmlns="http://www.w3.org/2000/svg" xmlns:xlink="http://www.w3.org/1999/xlink" width="48" height="48" version="1.1" viewBox="0 0 48 48"><title>drive-harddisk-Windows-48px</title><desc>Created with Sketch.</desc><defs><linearGradient id="linearGradient-1" x1="51.97%" x2="51.97%" y1="0%" y2="100%"><stop offset="0%" stop-color="#C2EF5E"/><stop offset="100%" stop-color="#3EDA8A"/></linearGradient></defs><g id="Page-1" fill="none" fill-rule="evenodd" stroke="none" stroke-width="1"><g id="drive-harddisk-Windows-48px"><g id="Group" transform="translate(8.000000, 4.000000)"><rect id="Rectangle-11" width="32" height="38" x="0" y="0" fill="url(#linearGradient-1)" rx="2"/><circle id="Oval-7" cx="29.25" cy="2.75" r=".75" fill="#FFF"/><rect id="Rectangle-11" width="32" height="6" x="0" y="34" fill="#1F9075" rx="2" transform="translate(16.000000, 37.000000) rotate(180.000000) translate(-16.000000, -37.000000)"/><circle id="Oval-7" cx="2.75" cy="2.75" r=".75" fill="#FFF"/><circle id="Oval-7" cx="2.75" cy="31.25" r=".75" fill="#FFF"/><circle id="Oval-7" cx="29.25" cy="31.25" r=".75" fill="#FFF"/><circle id="Oval-7" cx="29.25" cy="36.25" r=".75" fill="#C0EE5E"/><path id="Rectangle" fill="#3FDA8A" d="M2,35.495389 C2,35.2217932 2.23193359,35 2.5,35 L2.5,35 C2.77614237,35 3,35.2272203 3,35.5066152 L3,36.1784668 L3,37.502258 C3,37.7771533 2.76806641,38 2.5,38 L2.5,38 C2.22385763,38 2,37.7842474 2,37.504611 L2,35.495389 Z"/><rect id="Rectangle" width="1" height="3" x="4" y="35" fill="#3FDA8A" rx=".5"/><rect id="Rectangle" width="1" height="3" x="6" y="35" fill="#3FDA8A" rx=".5"/></g><path id="Page-1" fill="#FFF" d="M29.994751,17.5 L29.994751,14 L23,15.1999998 L23,21 L29.994751,21 L29.994751,17.5 Z M17,16.1914378 L17,21.0148188 L22,21.0148188 L22,15.3803123 L17,16.1914378 Z M23,22 L23,27.8124792 L29.994751,29 L29.994751,22 L23,22 Z M17,22 L17,26.8674364 L22,27.6345065 L21.9885975,22 L17,22 Z"/></g></g></svg>