<svg xmlns="http://www.w3.org/2000/svg" xmlns:xlink="http://www.w3.org/1999/xlink" width="48" height="48" version="1.1" viewBox="0 0 48 48"><title>drive-harddisk-mac-48px</title><desc>Created with Sketch.</desc><defs><linearGradient id="linearGradient-1" x1="51.97%" x2="51.97%" y1="0%" y2="100%"><stop offset="0%" stop-color="#C2EF5E"/><stop offset="100%" stop-color="#3EDA8A"/></linearGradient><polygon id="path-2" points="14 6.761 14 13 0 13 0 .521 14 .521 14 6.761"/><polygon id="path-4" points="4.102 .708 .729 .708 .729 4.629 4.102 4.629 4.102 .708"/></defs><g id="Page-1" fill="none" fill-rule="evenodd" stroke="none" stroke-width="1"><g id="drive-harddisk-mac-48px"><g id="Group" transform="translate(8.000000, 4.000000)"><rect id="Rectangle-11" width="32" height="38" x="0" y="0" fill="url(#linearGradient-1)" rx="2"/><circle id="Oval-7" cx="29.25" cy="2.75" r=".75" fill="#FFF"/><rect id="Rectangle-11" width="32" height="6" x="0" y="34" fill="#1F9075" rx="2" transform="translate(16.000000, 37.000000) rotate(180.000000) translate(-16.000000, -37.000000)"/><circle id="Oval-7" cx="2.75" cy="2.75" r=".75" fill="#FFF"/><circle id="Oval-7" cx="2.75" cy="31.25" r=".75" fill="#FFF"/><circle id="Oval-7" cx="29.25" cy="31.25" r=".75" fill="#FFF"/><circle id="Oval-7" cx="29.25" cy="36.25" r=".75" fill="#C0EE5E"/><path id="Rectangle" fill="#3FDA8A" d="M2,35.495389 C2,35.2217932 2.23193359,35 2.5,35 L2.5,35 C2.77614237,35 3,35.2272203 3,35.5066152 L3,36.1784668 L3,37.502258 C3,37.7771533 2.76806641,38 2.5,38 L2.5,38 C2.22385763,38 2,37.7842474 2,37.504611 L2,35.495389 Z"/><rect id="Rectangle" width="1" height="3" x="4" y="35" fill="#3FDA8A" rx=".5"/><rect id="Rectangle" width="1" height="3" x="6" y="35" fill="#3FDA8A" rx=".5"/></g><g id="Page-1" transform="translate(17.000000, 12.000000)"><g id="Group-3" transform="translate(0.000000, 4.292500)"><mask id="mask-3" fill="#fff"><use xlink:href="#path-2"/></mask><path id="Fill-1" fill="#FFF" d="M14,8.6603 C13.617,9.5083 13.434,9.8873 12.942,10.6363 C12.254,11.6833 11.286,12.9863 10.085,12.9973 C9.018,13.0073 8.744,12.3033 7.297,12.3113 C5.849,12.3193 5.547,13.0093 4.48,13.0003 C3.279,12.9893 2.361,11.8123 1.674,10.7653 C-0.249,7.8393 -0.45,4.4053 0.736,2.5793 C1.579,1.2823 2.907,0.5233 4.157,0.5233 C5.43,0.5233 6.23,1.2203 7.282,1.2203 C8.302,1.2203 8.924,0.5213 10.395,0.5213 C11.507,0.5213 12.685,1.1273 13.525,2.1743 C10.774,3.6813 11.221,7.6103 14,8.6603" mask="url(#mask-3)"/></g><g id="Group-6" transform="translate(6.000000, 0.292500)"><mask id="mask-5" fill="#fff"><use xlink:href="#path-4"/></mask><path id="Fill-4" fill="#FFF" d="M3.2789,3.3527 C3.8129,2.6667 4.2189,1.6977 4.0719,0.7077 C3.1989,0.7677 2.1779,1.3237 1.5819,2.0477 C1.0399,2.7047 0.5929,3.6797 0.7679,4.6277 C1.7209,4.6567 2.7069,4.0877 3.2789,3.3527" mask="url(#mask-5)"/></g></g></g></g></svg>