<svg xmlns="http://www.w3.org/2000/svg" xmlns:xlink="http://www.w3.org/1999/xlink" width="48" height="48" version="1.1" viewBox="0 0 48 48"><title>drive-network-48px</title><desc>Created with Sketch.</desc><defs><linearGradient id="linearGradient-1" x1="51.97%" x2="51.97%" y1="0%" y2="100%"><stop offset="0%" stop-color="#C2EF5E"/><stop offset="100%" stop-color="#3EDA8A"/></linearGradient></defs><g id="Page-1" fill="none" fill-rule="evenodd" stroke="none" stroke-width="1"><g id="drive-network-48px"><g id="Group" transform="translate(8.000000, 4.000000)"><rect id="Rectangle-11" width="32" height="38" x="0" y="0" fill="url(#linearGradient-1)" rx="2"/><circle id="Oval-7" cx="29.25" cy="2.75" r=".75" fill="#FFF"/><rect id="Rectangle-11" width="32" height="6" x="0" y="34" fill="#1F9075" rx="2" transform="translate(16.000000, 37.000000) rotate(180.000000) translate(-16.000000, -37.000000)"/><circle id="Oval-7" cx="2.75" cy="2.75" r=".75" fill="#FFF"/><circle id="Oval-7" cx="2.75" cy="31.25" r=".75" fill="#FFF"/><circle id="Oval-7" cx="29.25" cy="31.25" r=".75" fill="#FFF"/><circle id="Oval-7" cx="29.25" cy="36.25" r=".75" fill="#C0EE5E"/><path id="Rectangle" fill="#3FDA8A" d="M2,35.495389 C2,35.2217932 2.23193359,35 2.5,35 L2.5,35 C2.77614237,35 3,35.2272203 3,35.5066152 L3,36.1784668 L3,37.502258 C3,37.7771533 2.76806641,38 2.5,38 L2.5,38 C2.22385763,38 2,37.7842474 2,37.504611 L2,35.495389 Z"/><rect id="Rectangle" width="1" height="3" x="4" y="35" fill="#3FDA8A" rx=".5"/><rect id="Rectangle" width="1" height="3" x="6" y="35" fill="#3FDA8A" rx=".5"/></g><g id="Group" stroke="#FFF" transform="translate(15.500000, 15.107143)"><ellipse id="Oval-5" cx="8.5" cy="1.821" rx="7.893" ry="1.821"/><path id="Path-3" d="M0.6388637,1.82557896 C0.6388637,1.82557896 1.2136928,14.5841762 8.53972517,14.5841762 C15.8657575,14.5841762 16.3946359,1.69217355 16.3946359,1.69217355"/><path id="Path-4" d="M5.42900739,3.64285714 L1.85670689,7.30898612"/><path id="Path-4" d="M15.7151576,3.64285714 L12.1428571,7.30898612" transform="translate(13.929007, 5.475922) scale(-1, 1) translate(-13.929007, -5.475922)"/><path id="Path-4" d="M10.2182617,3.69918387 L3.66212681,11.6577061"/><path id="Path-4" d="M13.8418492,3.64285714 L7.28571429,11.6013794" transform="translate(10.563782, 7.622118) scale(-1, 1) translate(-10.563782, -7.622118)"/><path id="Path-4" d="M16.0184326,3.49788993 L7.24050467,14.0600412"/><path id="Path-4" d="M9.99221366,3.03541783 L0.983346122,14.2050084" transform="translate(5.487780, 8.620213) scale(-1, 1) translate(-5.487780, -8.620213)"/></g></g></g></svg>