<svg xmlns="http://www.w3.org/2000/svg" xmlns:xlink="http://www.w3.org/1999/xlink" id="图层_1" x="0" y="0" version="1.1" viewBox="0 0 16 16" xml:space="preserve" style="enable-background:new 0 0 16 16"><path id="path5018_1_" d="M7.84,3C7.574,3.011,7.296,3.059,7.027,3.125C4.883,3.656,3.59,5.825,4.121,7.969	c0.45,1.817,2.075,3.022,3.866,3.025c0.168,0,0.338-0.01,0.508-0.031l-0.389-2.98C8.071,7.993,8.035,8,7.996,8c-0.553,0-1-0.447-1-1	s0.447-1,1-1s1,0.447,1,1c0,0.118-0.029,0.225-0.073,0.325l2.701,1.387c0.386-0.83,0.47-1.781,0.247-2.681	C11.407,4.155,9.699,2.924,7.84,3L7.84,3z" style="fill:#9fa0a0"/><path id="path5020_1_" d="M8.66,8L10,12c0.734,2.056,3,0.384,1.497-1L8.66,8z" style="fill:#9fa0a0"/><path style="fill:#9fa0a0" d="M14.005,1h-12v14h12V1z M13.005,14h-10V2h10V14z"/></svg>