<svg xmlns="http://www.w3.org/2000/svg" xmlns:xlink="http://www.w3.org/1999/xlink" width="48" height="48" version="1.1" viewBox="0 0 48 48"><title>drive-optical-48px</title><desc>Created with Sketch.</desc><defs><linearGradient id="linearGradient-1" x1="51.97%" x2="51.97%" y1="0%" y2="100%"><stop offset="0%" stop-color="#C2EF5E"/><stop offset="100%" stop-color="#3EDA8A"/></linearGradient></defs><g id="Page-1" fill="none" fill-rule="evenodd" stroke="none" stroke-width="1"><g id="drive-optical-48px"><g id="Group-2" transform="translate(8.000000, 4.000000)"><g id="Group"><rect id="Rectangle-11" width="32" height="38" x="0" y="0" fill="url(#linearGradient-1)" rx="2"/><circle id="Oval-7" cx="29.25" cy="2.75" r=".75" fill="#FFF"/><rect id="Rectangle-11" width="32" height="6" x="0" y="34" fill="#1F9075" rx="2" transform="translate(16.000000, 37.000000) rotate(180.000000) translate(-16.000000, -37.000000)"/><circle id="Oval-7" cx="2.75" cy="2.75" r=".75" fill="#FFF"/><circle id="Oval-7" cx="2.75" cy="31.25" r=".75" fill="#FFF"/><circle id="Oval-7" cx="29.25" cy="31.25" r=".75" fill="#FFF"/><circle id="Oval-7" cx="29.25" cy="36.25" r=".75" fill="#C0EE5E"/><path id="Rectangle" fill="#3FDA8A" d="M2,35.495389 C2,35.2217932 2.23193359,35 2.5,35 L2.5,35 C2.77614237,35 3,35.2272203 3,35.5066152 L3,36.1784668 L3,37.502258 C3,37.7771533 2.76806641,38 2.5,38 L2.5,38 C2.22385763,38 2,37.7842474 2,37.504611 L2,35.495389 Z"/><rect id="Rectangle" width="1" height="3" x="4" y="35" fill="#3FDA8A" rx=".5"/><rect id="Rectangle" width="1" height="3" x="6" y="35" fill="#3FDA8A" rx=".5"/></g><g id="Group" transform="translate(8.000000, 9.000000)"><path id="Combined-Shape" fill="#FFF" d="M8,16 C12.418278,16 16,12.418278 16,8 C16,3.581722 12.418278,0 8,0 C3.581722,0 0,3.581722 0,8 C0,12.418278 3.581722,16 8,16 Z M8,11.4285714 C9.89354771,11.4285714 11.4285714,9.89354771 11.4285714,8 C11.4285714,6.10645229 9.89354771,4.57142857 8,4.57142857 C6.10645229,4.57142857 4.57142857,6.10645229 4.57142857,8 C4.57142857,9.89354771 6.10645229,11.4285714 8,11.4285714 Z"/><path id="Combined-Shape" fill="#8BE670" d="M14.8571429,8 C14.8571429,4.21290457 11.7870954,1.14285714 8,1.14285714 L8,3.42857143 C10.5247303,3.42857143 12.5714286,5.47526972 12.5714286,8 L14.8571429,8 Z"/><circle id="Oval" cx="8" cy="8" r="1.714" stroke="#FFF"/></g></g></g></g></svg>