<svg xmlns="http://www.w3.org/2000/svg" xmlns:xlink="http://www.w3.org/1999/xlink" id="图层_1" x="0" y="0" version="1.1" viewBox="0 0 16 16" xml:space="preserve" style="enable-background:new 0 0 16 16"><g><path style="fill:#9fa0a0" d="M14,12.8c0-0.442-0.358-0.8-0.8-0.8H2.8C2.358,12,2,12.358,2,12.8v0.4C2,13.642,2.358,14,2.8,14 h10.4c0.442,0,0.8-0.358,0.8-0.8V12.8z"/><path style="fill:#9fa0a0" d="M3.073,10h9.855c0.307,0,0.582-0.163,0.717-0.429c0.133-0.262,0.105-0.572-0.078-0.822L8.646,2.352 C8.343,1.936,7.649,1.941,7.362,2.336L2.426,8.763C2.25,9.005,2.224,9.313,2.356,9.573C2.49,9.838,2.766,10,3.073,10z"/></g></svg>