<svg xmlns="http://www.w3.org/2000/svg" xmlns:xlink="http://www.w3.org/1999/xlink" width="48" height="48" version="1.1" viewBox="0 0 48 48"><title>drive-removable-media-usb-48px</title><desc>Created with Sketch.</desc><defs><linearGradient id="linearGradient-1" x1="50%" x2="50%" y1="0%" y2="100%"><stop offset="0%" stop-color="#E362CA"/><stop offset="100%" stop-color="#E3147D"/></linearGradient></defs><g id="Page-1" fill="none" fill-rule="evenodd" stroke="none" stroke-width="1"><g id="drive-removable-media-usb-48px"><g id="Group" transform="translate(7.500000, 4.000000)"><rect id="Rectangle-11" width="32" height="38" x="0" y="0" fill="url(#linearGradient-1)" rx="2"/><circle id="Oval-7" cx="29.25" cy="2.75" r=".75" fill="#FFF"/><rect id="Rectangle-11" width="32" height="6" x="0" y="34" fill="#6E1268" rx="2" transform="translate(16.000000, 37.000000) rotate(180.000000) translate(-16.000000, -37.000000)"/><circle id="Oval-7" cx="2.75" cy="2.75" r=".75" fill="#FFF"/><path id="Oval-7" fill="#1CF892" d="M29.25,38 C29.6642136,38 30,37.6642136 30,37.25 C30,36.8357864 29.6642136,36.5 29.25,36.5 C28.8357864,36.5 28.5,36.8357864 28.5,37.25 C28.5,37.6642136 28.8357864,38 29.25,38 Z"/><rect id="Rectangle" width="1" height="3" x="2" y="35" fill="#1CF892" rx=".5"/><rect id="Rectangle" width="1" height="3" x="4" y="35" fill="#1CF892" rx=".5"/><rect id="Rectangle" width="1" height="3" x="6" y="35" fill="#1CF892" rx=".5"/></g><path id="Oval-7" fill="#FFF" d="M10.25,36 C10.6642136,36 11,35.6642136 11,35.25 C11,34.8357864 10.6642136,34.5 10.25,34.5 C9.83578644,34.5 9.5,34.8357864 9.5,35.25 C9.5,35.6642136 9.83578644,36 10.25,36 Z"/><circle id="Oval-7" cx="36.75" cy="35.25" r=".75" fill="#FFF"/><g id="Group" fill="#FFF" transform="translate(19.000000, 10.000000)"><circle id="Oval" cx="5.447" cy="18.394" r="2.064"/><polygon id="Shape" points="3.72 3.718 7.125 3.718 5.452 .944"/><circle id="Oval" cx="2.044" cy="8.348" r="1.493"/><rect id="Rectangle-path" width="3.042" height="3.042" x="7.388" y="5.23"/><polygon id="Shape" points="5.867 2.949 5.107 2.949 5.107 17.962 5.107 19.68 5.867 19.68"/><path id="Shape" d="M8.552,6.849 L8.552,9.262 C8.552,9.662 8.506,9.819 8.189,10.121 L5.447,12.042 L5.447,12.864 L8.65,10.543 C8.65,10.543 9.202,10.212 9.202,9.315 L9.2,9.315 L9.2,6.848 L8.552,6.848 L8.552,6.849 Z"/><path id="Shape" d="M2.387,9.157 L2.387,11.522 C2.387,11.914 2.433,12.068 2.75,12.364 L5.492,14.247 L5.492,15.053 L2.289,12.778 C2.289,12.778 1.737,12.453 1.737,11.575 L1.74,11.575 L1.74,9.158 L2.387,9.158 L2.387,9.157 Z"/></g></g></g></svg>