<svg xmlns="http://www.w3.org/2000/svg" xmlns:xlink="http://www.w3.org/1999/xlink" id="图层_1" x="0" y="0" version="1.1" viewBox="0 0 16 16" xml:space="preserve" style="enable-background:new 0 0 16 16"><g><path style="fill:#9fa0a0" d="M8,4.93c-1.692,0-3.064,1.372-3.064,3.064S6.308,11.058,8,11.058c1.692,0,3.064-1.372,3.064-3.064 S9.692,4.93,8,4.93z M8,10.036c-1.128,0-2.043-0.915-2.043-2.043S6.872,5.951,8,5.951c1.128,0,2.043,0.915,2.043,2.043 S9.128,10.036,8,10.036z"/><rect style="fill:#9fa0a0" width="4" height="1" x="6" y="12"/><rect style="fill:#9fa0a0" width="4" height="1" x="6" y="14"/><rect style="fill:#9fa0a0" width="4.086" height="1.021" x="2.707" y="4.233" transform="matrix(-0.7071 0.7071 -0.7071 -0.7071 11.463 4.7391)"/><rect style="fill:#9fa0a0" width="4.086" height="1.021" x="1.263" y="2.788" transform="matrix(-0.7071 0.7071 -0.7071 -0.7071 7.9758 3.2947)"/><rect style="fill:#9fa0a0" width="4.086" height="3.064" x="9.929" y="2.489" transform="matrix(-0.7071 -0.7071 0.7071 -0.7071 17.5943 15.3306)"/></g></svg>