<svg xmlns="http://www.w3.org/2000/svg" xmlns:xlink="http://www.w3.org/1999/xlink" id="图层_1" x="0" y="0" version="1.1" viewBox="0 0 16 16" xml:space="preserve" style="enable-background:new 0 0 16 16"><g><path style="fill:#9fa0a0" d="M8.805,15h-1.6c-0.11,0-0.2-0.09-0.2-0.2V8.2c0-0.11,0.09-0.2,0.2-0.2h1.6c0.11,0,0.2,0.09,0.2,0.2 v6.6C9.005,14.91,8.916,15,8.805,15z"/><path style="fill:#9fa0a0" d="M6.005,11L3.147,8.141c-0.078-0.078-0.078-0.205,0-0.283l4.717-4.717 c0.078-0.078,0.205-0.078,0.283,0l4.717,4.717c0.078,0.078,0.078,0.205,0,0.283L10.005,11v2l4.859-4.859 c0.078-0.078,0.078-0.205,0-0.283L8.147,1.141c-0.078-0.078-0.205-0.078-0.283,0L1.147,7.859c-0.078,0.078-0.078,0.205,0,0.283 L6.005,13V11z"/></g></svg>