<svg xmlns="http://www.w3.org/2000/svg" xmlns:xlink="http://www.w3.org/1999/xlink" id="图层_1" x="0" y="0" version="1.1" viewBox="0 0 16 16" xml:space="preserve" style="enable-background:new 0 0 16 16"><g><path style="fill:#9fa0a0" d="M12.5,1h-9C2.673,1,2,1.673,2,2.5v11C2,14.327,2.673,15,3.5,15h9c0.827,0,1.5-0.673,1.5-1.5v-11 C14,1.673,13.327,1,12.5,1z M13,13.5c0,0.275-0.225,0.5-0.5,0.5h-9C3.225,14,3,13.775,3,13.5v-11C3,2.225,3.225,2,3.5,2h9 C12.776,2,13,2.225,13,2.5V13.5z"/><path style="fill:#9fa0a0" d="M11.5,3h-7C4.224,3,4,3.224,4,3.5v7C4,10.776,4.224,11,4.5,11h7c0.276,0,0.5-0.224,0.5-0.5v-7 C12,3.224,11.776,3,11.5,3z"/><rect style="fill:#9fa0a0" width="2" height="1" x="7" y="12"/></g></svg>