<svg xmlns="http://www.w3.org/2000/svg" xmlns:xlink="http://www.w3.org/1999/xlink" id="图层_1" x="0" y="0" version="1.1" viewBox="0 0 16 16" xml:space="preserve" style="enable-background:new 0 0 16 16"><g><polygon style="fill:#9fa0a0" points="11 2.987 9.021 .987 5 .987 5 4.987 11 4.987"/><rect style="fill:#9fa0a0" width="6" height="4" x="5" y="10.987"/><path style="fill:#9fa0a0" d="M13,3.987h-1v2H4v-2H3c-0.552,0-1,0.448-1,1v6c0,0.552,0.448,1,1,1h1v-2h8v2h1c0.552,0,1-0.448,1-1 v-6C14,4.435,13.552,3.987,13,3.987z M13,7.987h-0.984V7.003H13V7.987z"/></g></svg>