<svg xmlns="http://www.w3.org/2000/svg" xmlns:xlink="http://www.w3.org/1999/xlink" width="48" height="48" version="1.1" viewBox="0 0 48 48"><title>垃圾桶 普通</title><desc>Created with Sketch.</desc><defs><linearGradient id="linearGradient-1" x1="50%" x2="50%" y1="0%" y2="100%"><stop offset="0%" stop-color="#748294"/><stop offset="100%" stop-color="#475261"/></linearGradient></defs><g id="Page-1" fill="none" fill-rule="evenodd" stroke="none" stroke-width="1"><g id="垃圾桶-普通"><g id="鲨鱼垃圾桶-普通" transform="translate(5.000000, 2.000000)"><circle id="Oval-223" cx="19.019" cy="23.174" r="19" fill="#FFCD44" stroke="#FFC93B" stroke-width="1.5"/><g id="Group-26" transform="translate(2.000000, 0.651367)"><polygon id="Path-346" fill="#E5603E" points="2.5 27.349 9 15.849 25 16.349 31 27.849"/><polygon id="Triangle-7" fill="#FFF" points="20.773 14.6 22.37 20.985 19.177 20.985" transform="translate(20.773454, 17.792594) scale(-1, 1) rotate(161.000000) translate(-20.773454, -17.792594)"/><polygon id="Triangle-7" fill="#FFF" points="24.188 15.83 25.784 22.216 22.591 22.216" transform="translate(24.187517, 19.022982) scale(-1, 1) rotate(161.000000) translate(-24.187517, -19.022982)"/><polygon id="Triangle-7" fill="#FFF" points="18.595 14.241 15.402 14.241 16.999 20.627"/><polygon id="Triangle-7" fill="#FFF" points="13.006 14.667 14.602 21.053 11.41 21.053" transform="translate(13.005875, 17.859823) rotate(161.000000) translate(-13.005875, -17.859823)"/><polygon id="Triangle-7" fill="#FFF" points="21.306 21.149 22.902 27.535 19.71 27.535" transform="translate(21.306024, 24.341951) scale(1, -1) rotate(161.000000) translate(-21.306024, -24.341951)"/><polygon id="Triangle-7" fill="#FFF" points="18.291 20.696 19.887 27.082 16.695 27.082" transform="translate(18.290853, 23.889081) scale(1, -1) rotate(168.000000) translate(-18.290853, -23.889081)"/><polygon id="Triangle-7" fill="#FFF" points="15.49 20.586 17.086 26.972 13.893 26.972" transform="translate(15.489645, 23.778981) scale(-1, -1) rotate(168.000000) translate(-15.489645, -23.778981)"/><polygon id="Triangle-7" fill="#FFF" points="12.602 20.961 14.198 27.346 11.005 27.346" transform="translate(12.601721, 24.153515) scale(-1, -1) rotate(161.000000) translate(-12.601721, -24.153515)"/><polygon id="Triangle-7" fill="#FFF" points="9.707 15.83 11.303 22.216 8.11 22.216" transform="translate(9.706588, 19.022982) rotate(161.000000) translate(-9.706588, -19.022982)"/><polygon id="Triangle-7" fill="#FFF" points="8.116 22.374 9.712 28.759 6.52 28.759" transform="translate(8.115860, 25.566771) scale(1, -1) rotate(202.000000) translate(-8.115860, -25.566771)"/><polygon id="Triangle-7" fill="#FFF" points="25.052 22.32 26.648 28.706 23.455 28.706" transform="translate(25.051811, 25.512988) scale(-1, -1) rotate(203.000000) translate(-25.051811, -25.512988)"/><path id="Combined-Shape" fill="url(#linearGradient-1)" d="M0.5,33.3486328 C0.5,33.3486328 1.07644122,26.0514342 3.74839336,18.3829341 C6.70683546,9.89220805 12.0083069,0.946289062 17,0.946289062 C21.9984748,0.946289063 27.3048513,9.91653257 30.2636573,18.4175383 C32.928298,26.0733718 33.5,33.3486328 33.5,33.3486328 C33.5,33.3486328 28.5,42.3486328 17,42.3486328 C5.5,42.3486328 0.5,33.3486328 0.5,33.3486328 Z M16.460236,23.4932225 C10.0063598,23.4932225 3.68945614,26.6859172 3.68945614,26.6859172 C3.68945614,26.6859172 16.460236,5.93339995 29.2310159,26.6859172 C29.2310159,26.6859171 22.7756379,23.4932224 16.460236,23.4932225 Z"/></g></g></g></g></svg>