<svg xmlns="http://www.w3.org/2000/svg" xmlns:xlink="http://www.w3.org/1999/xlink" width="48" height="48" version="1.1" viewBox="0 0 48 48"><title>模版</title><desc>Created with Sketch.</desc><g id="Page-1" fill="none" fill-rule="evenodd" stroke="none" stroke-width="1"><g id="模版"><rect id="Rectangle-6" width="35.2" height="36" x="5.687" y="6" fill="#59BADF" rx="2"/><path id="Path-58" fill="#3F409C" d="M37.1641927,25.5882353 C37.1641927,25.5882353 11.7419705,23.9999996 10.7641927,35.6470584 C9.78641493,47.2941173 35.2086372,37.7647059 35.2086372,37.7647059 L37.1641927,31.9411765"/><path id="Rectangle-6" fill="#78CDEC" fill-opacity=".9" d="M1.96419271,12.2343519 C1.96419271,11.1303028 2.85191485,10.2352941 3.95755247,10.2352941 L35.170833,10.2352941 C36.2717352,10.2352941 37.1641928,11.1347826 37.1641927,12.2343519 L37.1641921,40.0009422 C37.1641921,41.1049913 36.2764699,42 35.1708324,42 L3.95755243,42 C2.85665026,42 1.96419271,41.1005115 1.96419271,40.0009422 L1.96419271,12.2343519 Z"/><circle id="Oval-223" cx="19.964" cy="26.344" r="8" stroke="#FFF" stroke-width="1.5"/><polygon id="Star-3" fill="#FFF" points="19.905 29.033 16.723 30.707 17.331 27.162 14.756 24.653 18.314 24.136 19.905 20.911 21.497 24.136 25.055 24.653 22.48 27.162 23.088 30.707"/><path id="Path-57" fill="#554095" d="M37.1641927,25.5882353 C37.1641927,25.5882353 44.0086372,26.1176471 45.4753038,31.4117647 C46.9419705,36.7058824 44.9864149,41.4705882 41.0753038,41.4705882 C37.1641927,41.4705882 32.2753038,31.4117647 22.497526,33.5294118 C22.497526,33.5294118 28.8530816,26.6470588 37.1641927,31.9411765"/><ellipse id="Oval-27" cx="29.906" cy="33.369" fill="#FFA1A1" rx="1.467" ry=".529" transform="translate(29.905566, 33.368503) rotate(14.000000) translate(-29.905566, -33.368503)"/><path id="Oval-27" fill="#FFA1A1" d="M26.4939836,33.1425931 C27.3040012,33.1425931 27.4016903,32.9055674 27.4016903,32.6131814 C27.4016903,32.3207953 27.3040012,32.0837696 26.4939836,32.0837696 C25.6839659,32.0837696 25.4473261,32.3207953 25.4473261,32.6131814 C25.4473261,32.9055674 25.6839659,33.1425931 26.4939836,33.1425931 Z" transform="translate(26.424508, 32.613181) rotate(2.000000) translate(-26.424508, -32.613181)"/><ellipse id="Oval-27" cx="33.583" cy="35.349" fill="#FFA1A1" rx="1.467" ry=".529" transform="translate(33.582672, 35.349427) rotate(32.000000) translate(-33.582672, -35.349427)"/><ellipse id="Oval-27" cx="36.824" cy="37.802" fill="#FFA1A1" rx="1.467" ry=".759" transform="translate(36.823722, 37.802028) rotate(32.000000) translate(-36.823722, -37.802028)"/><ellipse id="Oval-27" cx="39.764" cy="40.122" fill="#FFA1A1" rx="1.467" ry=".759" transform="translate(39.764304, 40.121958) rotate(22.000000) translate(-39.764304, -40.121958)"/></g></g></svg>