<svg xmlns="http://www.w3.org/2000/svg" xmlns:xlink="http://www.w3.org/1999/xlink" width="48" height="48" version="1.1" viewBox="0 0 48 48"><title>视频</title><desc>Created with Sketch.</desc><g id="Page-1" fill="none" fill-rule="evenodd" stroke="none" stroke-width="1"><g id="视频"><rect id="Rectangle-6" width="35.2" height="36" x="5.722" y="6" fill="#59BADF" rx="2"/><path id="Path-58" fill="#3F409C" d="M37.2,25.5882353 C37.2,25.5882353 11.7777778,23.9999996 10.8,35.6470584 C9.82222222,47.2941173 35.2444444,37.7647059 35.2444444,37.7647059 L37.2,31.9411765"/><path id="Rectangle-6" fill="#78CDEC" fill-opacity=".9" d="M2,12.2343519 C2,11.1303028 2.88772214,10.2352941 3.99335976,10.2352941 L35.2066403,10.2352941 C36.3075425,10.2352941 37.2000001,11.1347826 37.2,12.2343519 L37.1999994,40.0009422 C37.1999994,41.1049913 36.3122772,42 35.2066396,42 L3.99335972,42 C2.89245755,42 2,41.1005115 2,40.0009422 L2,12.2343519 Z"/><circle id="Oval-223" cx="20" cy="26.344" r="8" stroke="#FFF" stroke-width="1.5"/><polygon id="Triangle-4" fill="#FFF" points="21.037 21.781 25.249 30.205 16.825 30.205" transform="translate(21.036820, 25.992875) rotate(90.000000) translate(-21.036820, -25.992875)"/><path id="Path-57" fill="#554095" d="M37.2,25.5882353 C37.2,25.5882353 44.0444444,26.1176471 45.5111111,31.4117647 C46.9777778,36.7058824 45.0222222,41.4705882 41.1111111,41.4705882 C37.2,41.4705882 32.3111111,31.4117647 22.5333333,33.5294118 C22.5333333,33.5294118 28.8888889,26.6470588 37.2,31.9411765"/><ellipse id="Oval-27" cx="29.941" cy="33.369" fill="#FFA1A1" rx="1.467" ry=".529" transform="translate(29.941373, 33.368503) rotate(14.000000) translate(-29.941373, -33.368503)"/><path id="Oval-27" fill="#FFA1A1" d="M26.5297909,33.1425931 C27.3398085,33.1425931 27.4374976,32.9055674 27.4374976,32.6131814 C27.4374976,32.3207953 27.3398085,32.0837696 26.5297909,32.0837696 C25.7197732,32.0837696 25.4831334,32.3207953 25.4831334,32.6131814 C25.4831334,32.9055674 25.7197732,33.1425931 26.5297909,33.1425931 Z" transform="translate(26.460315, 32.613181) rotate(2.000000) translate(-26.460315, -32.613181)"/><ellipse id="Oval-27" cx="33.618" cy="35.349" fill="#FFA1A1" rx="1.467" ry=".529" transform="translate(33.618479, 35.349427) rotate(32.000000) translate(-33.618479, -35.349427)"/><ellipse id="Oval-27" cx="36.86" cy="37.802" fill="#FFA1A1" rx="1.467" ry=".759" transform="translate(36.859530, 37.802028) rotate(32.000000) translate(-36.859530, -37.802028)"/><ellipse id="Oval-27" cx="39.8" cy="40.122" fill="#FFA1A1" rx="1.467" ry=".759" transform="translate(39.800111, 40.121958) rotate(22.000000) translate(-39.800111, -40.121958)"/></g></g></svg>