<svg xmlns="http://www.w3.org/2000/svg" xmlns:xlink="http://www.w3.org/1999/xlink" width="48" height="48" version="1.1" viewBox="0 0 48 48"><title>network-server</title><desc>Created with Sketch.</desc><defs><filter id="filter-1" width="200%" height="200%" x="-50%" y="-50%" filterUnits="objectBoundingBox"><feOffset dx="0" dy="1" in="SourceAlpha" result="shadowOffsetOuter1"/><feGaussianBlur in="shadowOffsetOuter1" result="shadowBlurOuter1" stdDeviation="1"/><feColorMatrix in="shadowBlurOuter1" result="shadowMatrixOuter1" type="matrix" values="0 0 0 0 0 0 0 0 0 0 0 0 0 0 0 0 0 0 0.2 0"/><feMerge><feMergeNode in="shadowMatrixOuter1"/><feMergeNode in="SourceGraphic"/></feMerge></filter><linearGradient id="linearGradient-2" x1="100%" x2="0%" y1="47.582%" y2="47.582%"><stop offset=".58%" stop-color="#6AC4FF"/><stop offset="96.265%" stop-color="#6CCDFC"/><stop offset="100%" stop-color="#6AC4FF"/></linearGradient></defs><g id="Page-1" fill="none" fill-rule="evenodd" stroke="none" stroke-width="1"><g id="network-server"><g id="folder" transform="translate(4.000000, 8.000000)"><g id="Group" filter="url(#filter-1)"><path id="Combined-Shape" fill="#6AC4FF" d="M36.21875,22.375 C36.6502225,22.720178 37,23.444837 37,23.9955775 L37,32.0044225 C37,32.5542648 36.5562834,33 36.0001925,33 L32.995132,33 L4.00973606,33 C3.45207423,33 3,32.544827 3,31.9995806 L3,2.00041944 C3,1.44790304 3.44252932,1 4.00973606,1 L33.9902639,1 C34.5479258,1 35,1.45517302 35,2.00041944 L35,21.4 L36.21875,22.375 Z" transform="translate(20.000000, 17.000000) rotate(-90.000000) translate(-20.000000, -17.000000)"/><path id="Rectangle-279" fill="#FFF" d="M4.5,2.50041944 C4.5,1.94790304 4.93822575,1.5 5.49631511,1.5 L34.5036849,1.5 C35.0539345,1.5 35.5,1.95517302 35.5,2.50041944 L35.5,36.4995806 C35.5,37.052097 35.0617743,37.5 34.5036849,37.5 L5.49631511,37.5 C4.94606547,37.5 4.5,37.044827 4.5,36.4995806 L4.5,2.50041944 Z" transform="translate(20.000000, 19.500000) rotate(-90.000000) translate(-20.000000, -19.500000)"/><path id="Rectangle-279" fill="url(#linearGradient-2)" d="M5,2.00877516 C5,1.45164402 5.44736519,1 5.99815369,1 L34.0018463,1 C34.5531114,1 35,1.44921875 35,2.00877516 L35,39.9912248 C35,40.548356 34.5526348,41 34.0018463,41 L5.99815369,41 C5.44688863,41 5,40.5507812 5,39.9912248 L5,2.00877516 Z" transform="translate(20.000000, 21.000000) rotate(-90.000000) translate(-20.000000, -21.000000)"/></g></g><g id="Page-1" transform="translate(15.000000, 20.000000)"><path id="Stroke-1" stroke="#2CA7F8" stroke-width=".944" d="M17.4722,8.9722 C17.4722,13.6662 13.6662,17.4722 8.9722,17.4722 C4.2782,17.4722 0.4722,13.6662 0.4722,8.9722 C0.4722,4.2782 4.2782,0.4722 8.9722,0.4722 C13.6662,0.4722 17.4722,4.2782 17.4722,8.9722 L17.4722,8.9722 Z"/><path id="Stroke-3" stroke="#2CA7F8" d="M17.1966,11.1223 C7.1716,12.9643 2.6716,6.6013 1.5916,4.7493"/><path id="Stroke-5" stroke="#2CA7F8" d="M1.8102,13.5488 C2.2212,11.3958 4.2842,4.1378 13.6212,1.8568"/><path id="Stroke-7" stroke="#2CA7F8" d="M13.5357,16.1432 C14.3237,6.4222 7.5997,2.2082 5.5917,1.1732"/><path id="Stroke-9" stroke="#2CA7F8" d="M13.308,11.4479 C13.308,11.4479 8.832,13.7799 6.383,17.0689"/><path id="Fill-11" fill="#2CA7F8" d="M10.4526,3.6628 C10.4526,4.4908 9.7806,5.1628 8.9526,5.1628 C8.1246,5.1628 7.4526,4.4908 7.4526,3.6628 C7.4526,2.8348 8.1246,2.1628 8.9526,2.1628 C9.7806,2.1628 10.4526,2.8348 10.4526,3.6628"/><path id="Fill-13" fill="#2CA7F8" d="M5.793,7.856 C5.793,8.684 5.121,9.356 4.293,9.356 C3.465,9.356 2.793,8.684 2.793,7.856 C2.793,7.028 3.465,6.356 4.293,6.356 C5.121,6.356 5.793,7.028 5.793,7.856"/><path id="Fill-15" fill="#2CA7F8" d="M14.808,11.4533 C14.808,12.2813 14.136,12.9533 13.308,12.9533 C12.48,12.9533 11.808,12.2813 11.808,11.4533 C11.808,10.6253 12.48,9.9533 13.308,9.9533 C14.136,9.9533 14.808,10.6253 14.808,11.4533"/></g></g></g></svg>