<svg xmlns="http://www.w3.org/2000/svg" xmlns:xlink="http://www.w3.org/1999/xlink" width="48" height="48" version="1.1" viewBox="0 0 48 48"><title>启动器</title><desc>Created with Sketch.</desc><defs><linearGradient id="linearGradient-1" x1="50%" x2="50%" y1="0%" y2="100%"><stop offset="0%" stop-color="#4A90FF" stop-opacity=".5"/><stop offset="100%" stop-color="#071B3D"/></linearGradient><linearGradient id="linearGradient-2" x1="50%" x2="50%" y1="0%" y2="100%"><stop offset="0%" stop-color="#1A9CDA" stop-opacity=".5"/><stop offset="100%" stop-color="#002A99"/></linearGradient></defs><g id="Page-1" fill="none" fill-rule="evenodd" stroke="none" stroke-width="1"><g id="启动器"><g id="Group" transform="translate(3.000000, 2.000000)"><ellipse id="Oval" cx="20.572" cy="23.323" fill="#FF8B4F" rx="20.572" ry="20.096"/><path id="Oval" fill="url(#linearGradient-1)" fill-opacity=".6" d="M20.5718994,43.5805842 C9.21035309,43.5805842 0,34.5830953 0,23.4841303 C0,19.9807448 8.13197339,24.9434791 10.6043251,25.2680961 C15.9645528,25.971888 18.6561522,26.3240482 22.8931264,22.5156741 C29.2778388,16.7768207 41.1437988,12.3851653 41.1437988,23.4841303 C41.1437988,34.5830953 31.9334457,43.5805842 20.5718994,43.5805842"/><polygon id="Shape" fill="#FFF" points="26.408 12.379 26.933 11.23 27.353 12.379" transform="translate(26.880015, 11.804551) rotate(3.000000) translate(-26.880015, -11.804551)"/><polygon id="Shape" fill="#FFF" points="27.147 12.319 27.777 11.171 28.092 12.319" transform="translate(27.619386, 11.744805) rotate(3.000000) translate(-27.619386, -11.744805)"/><polygon id="Shape" fill="#FFF" points="27.991 12.169 28.621 11.116 28.936 12.264" transform="translate(28.463613, 11.690177) rotate(3.000000) translate(-28.463613, -11.690177)"/><polygon id="Shape" fill="#FFF" points="28.825 12.207 29.56 11.25 29.665 12.398" transform="translate(29.244655, 11.824123) rotate(3.000000) translate(-29.244655, -11.824123)"/><polygon id="Shape" fill="#FFF" points="29.771 12.256 30.506 11.203 30.716 12.447" transform="translate(30.243477, 11.824955) rotate(3.000000) translate(-30.243477, -11.824955)"/><polygon id="Shape" fill="#FFF" points="27.621 10.293 27.411 11.25 26.991 10.293" transform="translate(27.306173, 10.771232) rotate(3.000000) translate(-27.306173, -10.771232)"/><polygon id="Shape" fill="#FFF" points="28.358 10.329 28.148 11.19 27.728 10.329" transform="translate(28.042855, 10.759270) rotate(3.000000) translate(-28.042855, -10.759270)"/><polygon id="Shape" fill="#FFF" points="29.406 10.38 29.196 11.241 28.776 10.38" transform="translate(29.091416, 10.810443) rotate(3.000000) translate(-29.091416, -10.810443)"/><polygon id="Shape" fill="#FFF" points="30.143 11.388 29.723 10.24 30.563 10.335" transform="translate(30.142666, 10.813833) rotate(3.000000) translate(-30.142666, -10.813833)"/><polygon id="Shape" fill="#FFF" points="31.716 10.389 30.981 11.442 30.771 10.293" transform="translate(31.243655, 10.867565) rotate(3.000000) translate(-31.243655, -10.867565)"/><path id="Shape" fill="#525A66" d="M23.2925305,15.0642368 C23.2925305,15.0642368 28.7525305,16.78679 30.3275305,22.1458444 C30.3275305,22.2415418 30.2225305,22.2415418 30.2225305,22.2415418 C29.6975305,21.9544496 28.2275305,21.093173 26.5475305,20.7103834 C24.8675305,20.3275938 23.6075305,20.4232912 23.6075305,20.4232912 C23.9225305,18.6050406 23.8175305,16.8824874 23.2925305,15.0642368 L23.2925305,15.0642368 Z" transform="translate(26.810030, 18.652889) rotate(3.000000) translate(-26.810030, -18.652889)"/><path id="Shape" fill="#525A66" d="M10.4065011,7.77957238 C2.74150108,16.6794305 6.41650108,31.5125275 16.7065011,35.4361208 C21.1165011,37.158674 24.2665011,37.7328584 24.2665011,37.7328584 C24.2665011,37.7328584 23.8465011,41.465057 24.5815011,42.7091232 C24.5815011,42.7091232 26.4715011,34.8619364 30.3565011,31.0340405 C30.3565011,31.0340405 26.5765011,32.1824093 24.7915011,35.8189104 C24.7915011,35.8189104 15.1315011,33.5221729 17.8615011,26.4405653 C20.5915011,19.4546551 25.4215011,21.3686031 30.0415011,12.2773502 C30.0415011,12.1816528 26.6815011,10.8418892 24.6865011,11.511771 C24.6865011,11.511771 26.4715011,10.1720074 31.1965011,9.88491517 C31.4065011,9.88491517 31.5115011,9.78921777 31.6165011,9.59782297 C32.2465011,8.64084898 34.4515011,4.62155819 34.8715011,2.42051801 C34.8715011,2.13342581 34.6627317,2.0031035 34.4527317,1.9074061 C33.9583011,1.69836008 33.2965011,1.46354401 31.8265011,1.17645181 C26.3665011,0.315175216 17.2315011,-0.0676143819 10.4065011,7.77957238 Z" transform="translate(20.593679, 21.722372) rotate(3.000000) translate(-20.593679, -21.722372)"/><path id="Shape" fill="#525A66" d="M18.2339057,3.22420858 C18.2339057,3.22420858 11.7239057,0.161891793 5.94890574,2.84141898 C5.73890574,2.93711638 5.73890574,3.31990598 5.94890574,3.41560338 C7.62890574,4.18118257 12.1439057,6.28652536 12.0389057,9.34884215 L18.2339057,3.22420858 L18.2339057,3.22420858 Z" transform="translate(12.012656, 5.545549) rotate(3.000000) translate(-12.012656, -5.545549)"/><path id="Shape" fill="#F8F8F8" d="M16.8231895,11.464119 C11.9931895,17.8758447 9.05318952,29.0724405 17.8731895,35.0056793 C20.9181895,37.0153247 24.4881895,37.4938117 24.4881895,37.4938117 L24.8031895,36.3454429 C24.8031895,36.3454429 22.9131895,35.7712585 21.9681895,35.2927715 C21.0231895,34.8142845 17.8731895,32.9960339 17.6631895,29.5509275 C17.5581895,27.5412821 19.0281895,24.4789653 20.4981895,22.9478069 C22.0731895,21.4166485 25.5381895,19.0242135 27.2181895,17.3016604 C28.7931895,15.6748046 30.0531895,13.378067 30.6831895,12.1340008 C30.6831895,12.0383034 30.6831895,11.942606 30.5781895,11.8469086 C29.7381895,11.6555138 27.1776606,11.1040853 24.9726606,11.5825723 C24.9726606,11.5825723 26.9031895,10.3157502 31.4181895,10.028658 C31.5231895,10.028658 31.7331895,9.93296059 31.7331895,9.83726319 C32.2581895,8.88028919 34.6731895,4.86099841 34.9881895,2.65995822 C34.9881895,2.65995822 35.0078606,2.55645915 34.9716493,2.43435301 C34.9249376,2.27683889 34.7852354,2.08836185 34.3903618,2.05114893 C29.2453618,1.38126714 22.4931895,3.80832702 16.8231895,11.464119 Z" transform="translate(23.599412, 19.719422) rotate(3.000000) translate(-23.599412, -19.719422)"/><path id="Shape" fill="#F9F9F9" transform="translate(26.487569, 3.831614) rotate(3.000000) translate(-26.487569, -3.831614)"/><path id="Shape" fill="#FFF" d="M30.771083,10.2959389 L30.981083,11.4443077" transform="translate(31.296083, 10.870123) rotate(3.000000) translate(-31.296083, -10.870123)"/><path id="Shape" fill="#525A66" d="M3.69549828,19.6058512 C3.69549828,19.7015486 3.80049828,19.797246 3.80049828,19.7015486 C4.43049828,19.4144564 6.32049828,18.5531798 8.21049828,18.1703902 C10.2054983,17.7876006 11.6754983,17.9789954 11.6754983,17.9789954 C11.5704983,15.7779552 11.8854983,13.6726124 12.6204983,11.5672696 C12.6204983,11.5672696 5.90049828,13.2898228 3.69549828,19.6058512 Z" transform="translate(8.157998, 15.654229) rotate(3.000000) translate(-8.157998, -15.654229)"/><path id="Oval" fill="url(#linearGradient-2)" fill-opacity=".6" d="M20.5718994,43.5805842 C31.9334457,43.5805842 41.1437988,34.5830953 41.1437988,23.4841303 C41.1437988,19.9807448 33.0118254,24.9434791 30.5394737,25.2680961 C25.179246,25.971888 22.4876466,26.3240482 18.2506724,22.5156741 C11.86596,16.7768207 -9.51641516e-17,12.3851653 -9.51641516e-17,23.4841303 C-9.51641516e-17,34.5830953 9.21035309,43.5805842 20.5718994,43.5805842 Z"/></g><path id="Oval-17" fill="#FFF" stroke="#525A66" stroke-width=".5" d="M27.3502662,8.58003027 C29.0071204,8.58003027 30.3502662,7.31370032 30.3502662,5.75160315 C30.3502662,4.18950598 24.3502662,4.18950598 24.3502662,5.75160315 C24.3502662,7.31370032 25.6934119,8.58003027 27.3502662,8.58003027 Z" transform="translate(27.350266, 6.580030) rotate(-12.000000) translate(-27.350266, -6.580030)"/><path id="Oval-17" fill="#444" d="M28.0628297,7.9735476 C29.2405029,7.71661657 30.1861345,6.4570319 30.1861222,5.52691931 C30.1861133,4.85243856 28.9349616,4.56207745 27.6363206,4.56207745 C26.3376795,4.56207745 26.8851565,8.23047863 28.0628297,7.9735476 Z" transform="translate(28.536122, 6.274259) rotate(-12.000000) translate(-28.536122, -6.274259)"/></g></g></svg>