<svg xmlns="http://www.w3.org/2000/svg" xmlns:xlink="http://www.w3.org/1999/xlink" width="48" height="48" version="1.1" viewBox="0 0 48 48"><title>folder-home</title><desc>Created with Sketch.</desc><defs><filter id="filter-1" width="200%" height="200%" x="-50%" y="-50%" filterUnits="objectBoundingBox"><feOffset dx="0" dy="1" in="SourceAlpha" result="shadowOffsetOuter1"/><feGaussianBlur in="shadowOffsetOuter1" result="shadowBlurOuter1" stdDeviation="1"/><feColorMatrix in="shadowBlurOuter1" result="shadowMatrixOuter1" type="matrix" values="0 0 0 0 0 0 0 0 0 0 0 0 0 0 0 0 0 0 0.2 0"/><feMerge><feMergeNode in="shadowMatrixOuter1"/><feMergeNode in="SourceGraphic"/></feMerge></filter><linearGradient id="linearGradient-2" x1="100%" x2="0%" y1="47.582%" y2="47.582%"><stop offset=".58%" stop-color="#6AC4FF"/><stop offset="96.265%" stop-color="#6CCDFC"/><stop offset="100%" stop-color="#6AC4FF"/></linearGradient></defs><g id="Page-1" fill="none" fill-rule="evenodd" stroke="none" stroke-width="1"><g id="folder-home"><g id="folder" transform="translate(4.000000, 8.000000)"><g id="Group" filter="url(#filter-1)"><path id="Combined-Shape" fill="#6AC4FF" d="M36.21875,22.375 C36.6502225,22.720178 37,23.444837 37,23.9955775 L37,32.0044225 C37,32.5542648 36.5562834,33 36.0001925,33 L32.995132,33 L4.00973606,33 C3.45207423,33 3,32.544827 3,31.9995806 L3,2.00041944 C3,1.44790304 3.44252932,1 4.00973606,1 L33.9902639,1 C34.5479258,1 35,1.45517302 35,2.00041944 L35,21.4 L36.21875,22.375 Z" transform="translate(20.000000, 17.000000) rotate(-90.000000) translate(-20.000000, -17.000000)"/><path id="Rectangle-279" fill="#FFF" d="M4.5,2.50041944 C4.5,1.94790304 4.93822575,1.5 5.49631511,1.5 L34.5036849,1.5 C35.0539345,1.5 35.5,1.95517302 35.5,2.50041944 L35.5,36.4995806 C35.5,37.052097 35.0617743,37.5 34.5036849,37.5 L5.49631511,37.5 C4.94606547,37.5 4.5,37.044827 4.5,36.4995806 L4.5,2.50041944 Z" transform="translate(20.000000, 19.500000) rotate(-90.000000) translate(-20.000000, -19.500000)"/><path id="Rectangle-279" fill="url(#linearGradient-2)" d="M5,2.00877516 C5,1.45164402 5.44736519,1 5.99815369,1 L34.0018463,1 C34.5531114,1 35,1.44921875 35,2.00877516 L35,39.9912248 C35,40.548356 34.5526348,41 34.0018463,41 L5.99815369,41 C5.44688863,41 5,40.5507812 5,39.9912248 L5,2.00877516 Z" transform="translate(20.000000, 21.000000) rotate(-90.000000) translate(-20.000000, -21.000000)"/></g></g><g id="home_normal_22px" stroke="#2CA7F8" stroke-linecap="round" stroke-linejoin="round" transform="translate(14.000000, 19.000000)"><polygon id="Path-6" points="3.5 9.5 .5 9.5 10 .5 19.5 9.5 16.5 9.5 16.5 17.5 3.5 17.5"/><path id="Fill-1" d="M9.53823351,8.99311473 L10.00025,9.43960542 L10.4622665,8.99311473 C11.1422908,8.33562842 12.2458302,8.33562842 12.9258545,8.99311473 C13.6913818,9.73309931 13.6913818,10.9320743 12.9258545,11.6720589 L10.00025,14.5 L7.07414551,11.6720589 C6.30861816,10.9320743 6.30861816,9.73309931 7.07414551,8.99311473 C7.75466981,8.33562842 8.8577092,8.33562842 9.53823351,8.99311473 Z"/></g></g></g></svg>