<svg xmlns="http://www.w3.org/2000/svg" xmlns:xlink="http://www.w3.org/1999/xlink" width="48" height="48" version="1.1" viewBox="0 0 48 48"><title>垃圾桶 装满</title><desc>Created with Sketch.</desc><defs><linearGradient id="linearGradient-1" x1="50%" x2="50%" y1="0%" y2="100%"><stop offset="0%" stop-color="#748294"/><stop offset="100%" stop-color="#475261"/></linearGradient><linearGradient id="linearGradient-2" x1="30.928%" x2="30.928%" y1="16.083%" y2="100%"><stop offset="0%" stop-color="#C3F05D"/><stop offset="100%" stop-color="#35D98D"/></linearGradient></defs><g id="Page-1" fill="none" fill-rule="evenodd" stroke="none" stroke-width="1"><g id="垃圾桶-装满"><g id="鲨鱼垃圾桶满" transform="translate(5.000000, 2.000000)"><circle id="Oval-223" cx="19.019" cy="23.174" r="19" fill="#FFCD44" stroke="#FFCD44" stroke-width="1.5"/><g id="Group-26" transform="translate(2.000000, 0.651367)"><polygon id="Path-346" fill="#E5603E" points="2.5 31.349 5 19.349 30 19.849 32.5 31.849"/><g id="Group-27" fill="#FFF" transform="translate(16.627686, 26.468018) scale(1, -1) translate(-16.627686, -26.468018) translate(5.127686, 18.468018)"><polygon id="Triangle-7" points="15.773 .6 17.37 6.985 14.177 6.985" transform="translate(15.773454, 3.792594) scale(-1, 1) rotate(161.000000) translate(-15.773454, -3.792594)"/><polygon id="Triangle-7" points="19.188 1.83 20.784 8.216 17.591 8.216" transform="translate(19.187517, 5.022982) scale(-1, 1) rotate(161.000000) translate(-19.187517, -5.022982)"/><polygon id="Triangle-7" points="13.595 .241 10.402 .241 11.999 6.627"/><polygon id="Triangle-7" points="8.006 .667 9.602 7.053 6.41 7.053" transform="translate(8.005875, 3.859823) rotate(161.000000) translate(-8.005875, -3.859823)"/><polygon id="Triangle-7" points="16.306 7.149 17.902 13.535 14.71 13.535" transform="translate(16.306024, 10.341951) scale(1, -1) rotate(161.000000) translate(-16.306024, -10.341951)"/><polygon id="Triangle-7" points="13.291 6.696 14.887 13.082 11.695 13.082" transform="translate(13.290853, 9.889081) scale(1, -1) rotate(168.000000) translate(-13.290853, -9.889081)"/><polygon id="Triangle-7" points="10.49 6.586 12.086 12.972 8.893 12.972" transform="translate(10.489645, 9.778981) scale(-1, -1) rotate(168.000000) translate(-10.489645, -9.778981)"/><polygon id="Triangle-7" points="7.602 6.961 9.198 13.346 6.005 13.346" transform="translate(7.601721, 10.153515) scale(-1, -1) rotate(161.000000) translate(-7.601721, -10.153515)"/><polygon id="Triangle-7" points="4.707 1.83 6.303 8.216 3.11 8.216" transform="translate(4.706588, 5.022982) rotate(161.000000) translate(-4.706588, -5.022982)"/><polygon id="Triangle-7" points="3.116 8.374 4.712 14.759 1.52 14.759" transform="translate(3.115860, 11.566771) scale(1, -1) rotate(202.000000) translate(-3.115860, -11.566771)"/><polygon id="Triangle-7" points="20.052 8.32 21.648 14.706 18.455 14.706" transform="translate(20.051811, 11.512988) scale(-1, -1) rotate(203.000000) translate(-20.051811, -11.512988)"/></g><path id="Combined-Shape" fill="url(#linearGradient-1)" d="M0.5,33.3486328 C0.5,33.3486328 1.07644122,26.0514342 3.74839336,18.3829341 C6.70683546,9.89220805 12.0083069,0.946289062 17,0.946289062 C21.9984748,0.946289063 27.3048513,9.91653257 30.2636573,18.4175383 C32.928298,26.0733718 33.5,33.3486328 33.5,33.3486328 C33.5,33.3486328 28.5,42.3486328 17,42.3486328 C5.5,42.3486328 0.5,33.3486328 0.5,33.3486328 L0.5,33.3486328 L0.5,33.3486328 L0.5,33.3486328 L0.5,33.3486328 L0.5,33.3486328 L0.5,33.3486328 Z M17,24.3486326 C10.5465177,24.3486326 5,21.2889924 5,21.2889924 C5,21.2889924 9.91428762,30.3075312 17,30.3486328 C20.5666978,30.3693219 24.7242783,28.2374626 28.9999992,21.2889922 C28.9999992,21.2889922 23.3150164,24.3486326 17,24.3486326 L17,24.3486326 L17,24.3486326 L17,24.3486326 L17,24.3486326 L17,24.3486326 L17,24.3486326 Z"/></g><g id="fish" fill="url(#linearGradient-2)" transform="translate(24.528320, 22.307617) rotate(-0.500000) translate(-24.528320, -22.307617) translate(17.028320, 12.807617)"><path id="Combined-Shape" d="M4.97167976,17.6923819 C4.33312055,17.8897716 3.57449881,18.1923838 2.52308926,18.1923828 C1.4716797,18.1923819 0.971679687,18.0924072 0.971679687,18.0924072 C0.971679687,18.0924072 0.907687501,14.9131756 3.37702591,12.0725268 C5.33150363,9.82415734 7.48467288,7.40302714 8.9716797,6.19238267 C8.9716797,6.19238267 8.56186152,0.704655499 8.9716797,0.192382813 C9.38149787,-0.319889874 10.9716797,3.69238281 10.9716797,3.69238281 C10.9716797,3.69238281 15.2684682,2.30201723 14.9716797,3.19238281 C14.6748912,4.08274839 9.9716797,6.69238267 9.9716797,6.69238267 C9.6518209,8.988399 10.4318987,13.4374089 8.47167985,15.6923828 C8.27876493,15.914306 7.10173077,17.033946 4.97167976,17.6923819 Z"/></g></g></g></g></svg>