<svg xmlns="http://www.w3.org/2000/svg" xmlns:xlink="http://www.w3.org/1999/xlink" width="48" height="48" version="1.1" viewBox="0 0 48 48"><title>垃圾桶 打开时</title><desc>Created with Sketch.</desc><defs><linearGradient id="linearGradient-1" x1="50%" x2="50%" y1="0%" y2="100%"><stop offset="0%" stop-color="#748294"/><stop offset="100%" stop-color="#475261"/></linearGradient></defs><g id="Page-1" fill="none" fill-rule="evenodd" stroke="none" stroke-width="1"><g id="垃圾桶-打开时"><g id="鲨鱼垃圾桶-" transform="translate(5.000000, 3.000000)"><circle id="Oval-223" cx="19.019" cy="23.174" r="19" fill="#FFCD44" stroke="#FFC93B" stroke-width="1.5"/><path id="Oval-223" fill="#E5613E" d="M35.5,33.9999993 C35.53792,33.9422103 35.0356942,33.2768114 35.0000017,32.9999993 C34.5909733,29.8277911 30.2529128,14.0436825 30.2529128,14.0436825 C30.2529128,14.0436825 23.1925656,14 19.019043,14 C14.860263,14 11.0017058,13.7479245 7.81899526,14.0405499 C6.98623288,14.1171159 3.50000004,32.4999993 3.50000004,32.4999993 C3.50000004,32.4999993 2.43524604,33.9042749 2.50264428,34.0068224 C6.03256411,39.377655 12.1117055,42.923584 19.019043,42.923584 C25.9316219,42.923584 31.9712743,39.377678 35.5,33.9999993 Z"/><path id="Oval-268" fill="#C94421" d="M18.987793,38.5905762 C18.987793,38.5905762 21.9755856,37.1811523 23.487793,34.0905762 C25.0000003,31 22,29 18.987793,31.5905762 C16,29 12.9999999,31 14.487793,34.0905762 C15.975586,37.1811523 18.987793,38.5905762 18.987793,38.5905762 Z"/><g id="Group-26" transform="translate(2.000000, 0.651367)"><polygon id="Triangle-7" fill="#FFF" points="20.773 17.6 22.37 23.985 19.177 23.985" transform="translate(20.773454, 20.792594) scale(-1, 1) rotate(161.000000) translate(-20.773454, -20.792594)"/><polygon id="Triangle-7" fill="#FFF" points="24.188 18.83 25.784 25.216 22.591 25.216" transform="translate(24.187517, 22.022982) scale(-1, 1) rotate(161.000000) translate(-24.187517, -22.022982)"/><polygon id="Triangle-7" fill="#FFF" points="18.595 17.241 15.402 17.241 16.999 23.627"/><polygon id="Triangle-7" fill="#FFF" points="13.006 17.667 14.602 24.053 11.41 24.053" transform="translate(13.005875, 20.859823) rotate(161.000000) translate(-13.005875, -20.859823)"/><polygon id="Triangle-7" fill="#FFF" points="9.707 18.83 11.303 25.216 8.11 25.216" transform="translate(9.706588, 22.022982) rotate(161.000000) translate(-9.706588, -22.022982)"/><polygon id="Triangle-7" fill="#FFF" points="6.87 22.733 8.467 29.118 5.274 29.118" transform="translate(6.870174, 25.925468) rotate(145.000000) translate(-6.870174, -25.925468)"/><polygon id="Triangle-7" fill="#FFF" points="4.585 28.428 6.181 34.814 2.989 34.814" transform="translate(4.585018, 31.621025) rotate(123.000000) translate(-4.585018, -31.621025)"/><polygon id="Triangle-7" fill="#FFF" points="29.585 28.428 31.181 34.814 27.989 34.814" transform="translate(29.585018, 31.621025) scale(-1, 1) rotate(123.000000) translate(-29.585018, -31.621025)"/><polygon id="Triangle-7" fill="#FFF" points="26.87 22.733 28.467 29.118 25.274 29.118" transform="translate(26.870174, 25.925468) scale(-1, 1) rotate(145.000000) translate(-26.870174, -25.925468)"/><path id="Combined-Shape" fill="url(#linearGradient-1)" d="M30.8363024,36.6854835 C32.6473135,34.8834686 33.5,33.3486328 33.5,33.3486328 C33.5,33.3486328 32.928298,26.0733718 30.2636573,18.4175383 C27.3048513,9.91653257 21.9984748,0.946289063 17,0.946289062 C12.0083069,0.946289062 6.70683546,9.89220805 3.74839336,18.3829341 C1.07644122,26.0514342 0.5,33.3486328 0.5,33.3486328 C0.5,33.3486328 1.32433976,34.8324444 3.07343358,36.5950957 C2.12134197,32.4418388 5.00000011,27.3486332 5.00000011,27.3486332 C5.00000011,27.3486332 16.2292198,6.59611591 28.9999997,27.3486331 C28.9999997,27.3486331 31.6550549,32.522272 30.8363024,36.6854835 Z"/></g></g></g></g></svg>